<?xml version="1.0" encoding="utf-8"?>
<!-- Generator: Adobe Illustrator 15.0.0, SVG Export Plug-In . SVG Version: 6.00 Build 0)  -->
<!DOCTYPE svg PUBLIC "-//W3C//DTD SVG 1.1//EN" "http://www.w3.org/Graphics/SVG/1.1/DTD/svg11.dtd">
<svg version="1.1" id="图层_1" xmlns="http://www.w3.org/2000/svg" xmlns:xlink="http://www.w3.org/1999/xlink" x="0px" y="0px"
	 width="47px" height="57px" viewBox="0 0 47 57" enable-background="new 0 0 47 57" xml:space="preserve">
<path fill="#A80100" d="M13.546,9.553c0.938-2.461,2.733-3.71,5.391-3.75c0.938,0.274,1.641,0.586,2.109,0.938
	c2.93,1.055,4.96,1.602,6.094,1.641c0.741-0.469,1.758-1.172,3.047-2.109c2.461-1.406,4.257-2.187,5.391-2.344
	c1.406,0.469,2.813,1.875,4.219,4.219c0.272,0.469,0.507,0.938,0.703,1.406c2.616,4.219,3.945,8.282,3.984,12.188
	c-0.469,0.586-1.328,1.368-2.578,2.344c-1.211,0.938-2.071,1.641-2.578,2.109c0.938,0.469,1.875,0.86,2.813,1.172
	c2.616,1.212,3.945,2.852,3.984,4.922c-0.469,0.938-1.406,2.109-2.813,3.516s-2.344,2.578-2.813,3.516
	c-0.117,0.273-0.352,0.586-0.703,0.938c-1.68,2.617-3.477,4.18-5.391,4.688h-3.984c-0.273,0-0.664,0-1.172,0
	c-4.219-0.742-7.5-2.227-9.844-4.453c-2.93-2.617-4.415-5.82-4.453-9.609c0.117-0.273,0.195-0.664,0.234-1.172
	c0.117-0.586,0.273-1.289,0.469-2.109c0.273-0.938,0.43-1.562,0.469-1.875c0.586-1.875,0.977-3.281,1.172-4.219
	c-0.273-1.523-0.586-2.695-0.938-3.516c-0.273-1.055-0.664-2.148-1.172-3.281c-0.273-0.469-0.586-1.172-0.938-2.109
	C13.312,11.193,13.077,10.178,13.546,9.553z M28.78,24.553c0.272,0,0.507,0.079,0.703,0.234c0.272,0.117,0.507,0.196,0.703,0.234
	c3.75-0.742,5.703-2.227,5.859-4.453c0-0.117,0-0.352,0-0.703c-0.586-1.679-1.603-2.539-3.047-2.578
	c-0.117,0.117-0.273,0.196-0.469,0.234c-2.148,0.743-3.478,1.602-3.984,2.578c-0.117,0.274-0.196,0.899-0.234,1.875
	c0.117,0.586,0.195,1.368,0.234,2.344C28.663,24.436,28.741,24.514,28.78,24.553z M28.546,32.053
	c0.938,1.055,2.188,1.602,3.75,1.641h1.875c1.406-0.742,2.265-1.836,2.578-3.281c-0.938-1.523-2.344-2.304-4.219-2.344
	c-0.938,0-1.954,0-3.047,0c-0.469,0.274-0.859,0.743-1.172,1.406v2.344C28.429,31.936,28.507,32.014,28.546,32.053z"/>
<rect id="_x3C_切片_x3E__5_" x="0.5" fill="none" width="46.5" height="55.479"/>
</svg>
