<?xml version="1.0" encoding="utf-8"?>
<!-- Generator: Adobe Illustrator 15.0.0, SVG Export Plug-In  -->
<!DOCTYPE svg PUBLIC "-//W3C//DTD SVG 1.1//EN" "http://www.w3.org/Graphics/SVG/1.1/DTD/svg11.dtd" [
	<!ENTITY ns_flows "http://ns.adobe.com/Flows/1.0/">
]>
<svg version="1.1"
	 xmlns="http://www.w3.org/2000/svg" xmlns:xlink="http://www.w3.org/1999/xlink" xmlns:a="http://ns.adobe.com/AdobeSVGViewerExtensions/3.0/"
	 x="0px" y="0px" width="47px" height="57px" viewBox="-0.2078 -0.167 48 58" enable-background="new -0.2078 -0.167 48 58"
	 xml:space="preserve">
<defs>
</defs>
<path fill="#A80100" d="M14.6426,11.437c0.9385-2.9302,2.9678-4.4141,6.0938-4.4531c0.9385,0.2739,1.6416,0.5859,2.1094,0.938
	c0.9385,0.2744,1.7188,0.5083,2.3438,0.7031c2.6162-2.3438,5.1943-3.5161,7.7344-3.5161c1.9922,0.938,3.3975,2.6572,4.2188,5.1563
	l1.875,3.75c0.1172,0.2739,0.5068,0.7427,1.1719,1.4058c0.2725,0.1172,0.7412,0.5083,1.4063,1.1719
	c3.5537,4.2192,5.3516,8.125,5.3906,11.7192c-0.5859,1.5229-1.6797,3.0859-3.2803,4.688c-0.2734,0.4688-0.8994,1.1719-1.875,2.1089
	c-0.5859,0.7432-1.2891,1.4463-2.1094,2.1089c-0.9375,0.9385-1.6406,1.9541-2.1094,3.0474
	c-1.2109,1.875-2.1475,3.2036-2.8125,3.9839c-1.2109,1.5229-2.6953,2.3828-4.4531,2.5781c-1.4063-0.7422-2.5-1.835-3.2813-3.2813
	c-0.4688-0.4688-0.7813-0.8589-0.9375-1.1719c-0.7422,1.5229-1.3682,2.6182-1.875,3.2813
	c-0.7422,0.7427-1.9141,1.1328-3.5166,1.1719c-3.8662-1.4063-5.8203-4.375-5.8584-8.9063c0.1172-1.21,0.6641-2.9297,1.6406-5.1558
	l1.4063-4.9224c0-1.5229,0-3.1636,0-4.9219c-0.2734-0.938-0.4307-1.6406-0.4688-2.1089c-0.1172-0.5859-0.3525-1.2891-0.7031-2.1089
	l-1.4063-3.75C14.6035,13.4302,14.3691,12.2578,14.6426,11.437z M35.7354,28.0781c0-0.4692,0.0781-0.7813,0.2344-0.938v-0.938
	c-1.0547-5.2729-3.0859-8.0859-6.0938-8.438c-2.1484,0.4688-3.2432,1.7188-3.2813,3.75c0.2725,1.9917,0.4297,5.1958,0.4688,9.6089
	c-0.2725,1.2109-0.4307,2.3052-0.4688,3.2813c1.0547,0.4688,2.1475,0.7817,3.2813,0.9375
	C32.9619,34.7578,34.916,32.3359,35.7354,28.0781z"/>
<rect id="_x3C_切片_x3E__8_" x="13.792" y="1.375" fill="none" width="33.1719" height="55.458"/>
<rect id="_x3C_切片_x3E__7_" x="47" y="1.375" fill="none" width="464.749" height="55.541"/>
<rect id="_x3C_切片_x3E__6_" fill="none" width="47" height="57"/>
</svg>
