<?xml version="1.0" standalone="no"?><!DOCTYPE svg PUBLIC "-//W3C//DTD SVG 1.1//EN" "http://www.w3.org/Graphics/SVG/1.1/DTD/svg11.dtd"><svg t="1563342021732" class="icon" viewBox="0 0 1024 1024" version="1.1" xmlns="http://www.w3.org/2000/svg" p-id="2065" xmlns:xlink="http://www.w3.org/1999/xlink" width="160" height="160"><defs><style type="text/css"></style></defs><path d="M349.4746829 26.55203555h158.75441095v734.85761878c-81.43940494 15.45678734-141.23154091 21.64338574-206.17723335 21.64338688-193.81180416-0.00388323-294.83627975-87.61435363-294.83627975-255.65837198 0-161.85353671 107.2188416-266.99464363 273.18124316-266.99464363 25.77166905 0 45.36062293 2.05831623 69.07009138 8.24103026z m0 369.89490518c-18.55591197-6.17883193-34.02046691-8.24103139-53.60553757-8.2410314-80.41024739 0-126.80002787 49.48502187-126.80002787 136.07410006 0 84.53852957 44.33146425 130.92442681 125.76698595 130.92442794 17.51510357 0 31.95826745-1.02915755 54.63469512-4.11663246z" fill="#43a047" p-id="2066"></path><path d="M760.79610882 271.72076317v368.02300245c0 126.80002787-9.27795655 187.61743815-37.10794069 240.20158464-25.77555229 50.52194702-59.79990243 82.46856363-129.89526926 117.52595569l-147.42202368-70.09925006c70.09925006-32.98742499 104.11971698-61.84656782 125.76698709-106.18968405 22.68419527-45.35673856 29.90383559-97.92923421 29.90383445-236.06941696V271.72852963z m-158.75052885-244.31821597h158.75052885v162.87880989h-158.75052885z" fill="#43a047" p-id="2067"></path></svg>