<?xml version="1.0" encoding="utf-8"?>
<!-- Generator: Adobe Illustrator 15.0.0, SVG Export Plug-In . SVG Version: 6.00 Build 0)  -->
<!DOCTYPE svg PUBLIC "-//W3C//DTD SVG 1.1//EN" "http://www.w3.org/Graphics/SVG/1.1/DTD/svg11.dtd">
<svg version="1.1" id="图层_1" xmlns="http://www.w3.org/2000/svg" xmlns:xlink="http://www.w3.org/1999/xlink" x="0px" y="0px"
	 width="465px" height="57px" viewBox="0 0 465 57" enable-background="new 0 0 465 57" xml:space="preserve">
<path fill="#FFFFFF" d="M14.766,28.813c0.586-2.344,2.461-4.062,5.625-5.156c4.805-2.148,9.57-3.242,14.297-3.281
	c3.554,0.586,5.82,3.164,6.797,7.734c-0.586,1.211-1.523,1.836-2.813,1.875c-0.938-0.117-2.423-0.195-4.453-0.234
	c-0.586,0.117-1.289,0.195-2.109,0.234c-0.586,0.273-1.055,0.586-1.406,0.938c0.586,2.148,1.758,3.242,3.516,3.281l0.938-0.938
	c1.21-1.523,2.227-2.383,3.047-2.578c1.875,0.586,2.813,1.992,2.813,4.219c-0.273,1.211-0.665,2.383-1.172,3.516
	c-1.523,4.688-3.789,7.266-6.797,7.734c-2.344-0.742-5.001-2.227-7.969-4.453c-1.68-1.211-4.023-3.32-7.031-6.328
	C15.235,32.563,14.141,30.375,14.766,28.813z M31.172,26.703c0.272,0,0.43-0.078,0.469-0.234c0.741,0,1.523-0.078,2.344-0.234
	c0.469,0,1.172-0.156,2.109-0.469c-0.938-0.938-2.109-1.406-3.516-1.406c-0.742,0.586-1.289,1.289-1.641,2.109
	C31.055,26.586,31.133,26.665,31.172,26.703z"/>
<path fill="#FFFFFF" d="M52.09,21.781c1.523-0.938,4.18-1.406,7.969-1.406c0.938,0,1.719,0.079,2.344,0.234
	c3.554,0,5.977,0.703,7.266,2.109c0.586,0.743,0.976,1.602,1.172,2.578l2.109,6.328c0.741-1.523,1.444-3.085,2.109-4.688
	c0.938-2.148,1.484-3.789,1.641-4.922c-0.273-0.586-0.431-0.976-0.469-1.172c0.586-0.273,0.898-0.429,0.938-0.469
	c0.117-0.117,0.43-0.195,0.938-0.234c0.741,0.274,1.444,0.508,2.109,0.703c1.055,0.469,1.679,1.406,1.875,2.813
	c-0.273,0.938-0.586,1.641-0.938,2.109c-0.117,0.938-0.586,1.875-1.406,2.813c-0.469,1.055-0.938,2.07-1.406,3.047
	c-0.938,1.875-1.641,3.906-2.109,6.094c0,0.469-0.079,0.859-0.234,1.172c0,0.586-0.079,0.977-0.234,1.172
	c0,0.586-0.156,1.367-0.469,2.344c-0.586,1.875-1.523,2.969-2.813,3.281c-1.055-0.938-1.837-2.188-2.344-3.75
	c-0.117-0.586-0.273-1.289-0.47-2.109c0-0.273-0.156-1.055-0.469-2.344c-0.273-1.211-0.586-2.07-0.938-2.578
	c-0.742-1.406-2.227-2.891-4.453-4.453c-0.586-0.586-1.055-0.977-1.406-1.172c-1.055-0.938-2.148-1.953-3.281-3.047
	c-1.211-1.21-2.306-2.07-3.281-2.578c0.272,0.117-0.586-0.117-2.578-0.703c-0.273,0-0.508-0.078-0.703-0.234
	C51.973,22.133,51.817,21.821,52.09,21.781z"/>
<path fill="#FFFFFF" d="M95.391,28.813c0.586-2.344,2.461-4.062,5.625-5.156c4.805-2.148,9.57-3.242,14.297-3.281
	c3.554,0.586,5.82,3.164,6.797,7.734c-0.586,1.211-1.523,1.836-2.813,1.875c-0.938-0.117-2.423-0.195-4.453-0.234
	c-0.586,0.117-1.289,0.195-2.109,0.234c-0.586,0.273-1.055,0.586-1.406,0.938c0.586,2.148,1.758,3.242,3.516,3.281l0.938-0.938
	c1.21-1.523,2.227-2.383,3.047-2.578c1.875,0.586,2.813,1.992,2.813,4.219c-0.273,1.211-0.665,2.383-1.172,3.516
	c-1.523,4.688-3.789,7.266-6.797,7.734c-2.344-0.742-5.001-2.227-7.969-4.453c-1.68-1.211-4.023-3.32-7.031-6.328
	C95.86,32.563,94.766,30.375,95.391,28.813z M111.797,26.703c0.272,0,0.43-0.078,0.469-0.234c0.741,0,1.523-0.078,2.344-0.234
	c0.469,0,1.172-0.156,2.109-0.469c-0.938-0.938-2.109-1.406-3.516-1.406c-0.742,0.586-1.289,1.289-1.641,2.109
	C111.68,26.586,111.758,26.665,111.797,26.703z"/>
<path fill="#FFFFFF" d="M135.938,7.719c0.938-3.085,3.047-4.648,6.328-4.688c0.272,0.117,0.507,0.196,0.703,0.234
	c2.813,0.938,4.843,1.875,6.094,2.813c2.344,1.875,3.828,5.782,4.453,11.719c0,1.523,0,3.008,0,4.453
	c-0.273,2.618-0.273,5.118,0,7.5c0.272,3.75,0.43,6.875,0.469,9.375c0,0.469-0.079,0.781-0.234,0.938
	c-0.273,3.398-0.977,5.586-2.109,6.563c-0.586,0.273-1.837,0.43-3.75,0.469c-3.75-0.586-6.484-2.539-8.203-5.859
	c-1.211-2.461-1.837-5.82-1.875-10.078l1.406-9.844v-3.281c0-0.273-0.079-0.586-0.234-0.938c-0.273-2.344-0.82-4.296-1.641-5.859
	c-0.273-0.273-0.431-0.507-0.469-0.703C136.133,9.477,135.821,8.539,135.938,7.719z"/>
<path fill="#FFFFFF" d="M158.086,28.109c1.523-3.281,5.117-5.468,10.781-6.563c3.398-0.586,5.897-0.976,7.5-1.172
	c0.469,0,0.858,0.079,1.172,0.234c0.469,0.117,0.858,0.196,1.172,0.234c0.586-0.273,0.898-0.429,0.938-0.469
	c0.117-0.117,0.43-0.195,0.938-0.234c1.406,0.586,2.344,1.446,2.813,2.578v0.469c0,0.743,0.078,1.289,0.234,1.641
	c0.117,0.274,0.43,0.665,0.938,1.172c0.469,0.469,0.781,1.016,0.938,1.641v3.281v0.938c0,0.273-0.079,0.586-0.234,0.938
	c-0.117,0.742-0.508,2.07-1.172,3.984c-0.273,1.055-0.899,2.539-1.875,4.453c-1.523,3.281-3.712,4.922-6.563,4.922
	c-1.875-0.586-3.516-1.523-4.922-2.813c-0.742-0.469-2.227-1.641-4.453-3.516c-0.273-0.273-0.665-0.664-1.172-1.172
	c-1.055-1.055-1.914-1.836-2.578-2.344c-0.586-0.469-1.368-1.172-2.344-2.109C158.047,31.586,157.344,29.555,158.086,28.109z
	 M173.321,30.688c0.586,1.992,1.992,3.008,4.219,3.047c1.523-0.742,2.616-2.383,3.281-4.922c0.272-0.586,0.507-1.289,0.703-2.109
	c-0.117-0.117-0.352-0.273-0.703-0.469c-1.68-1.21-3.243-1.835-4.688-1.875c-1.992,1.211-3.009,3.243-3.047,6.094
	C173.203,30.57,173.281,30.648,173.321,30.688z"/>
<path fill="#FFFFFF" d="M199.746,21.547c0.741-0.469,1.992-0.859,3.75-1.172c1.406,0,2.733,0,3.984,0
	c0.586,0.117,1.21,0.196,1.875,0.234l2.813,0.469c1.21,0.274,2.227,0.43,3.047,0.469c1.055-0.469,2.773-0.859,5.156-1.172
	c4.96,0.743,7.461,4.102,7.5,10.078c-0.273,1.523-0.586,2.539-0.938,3.047c-0.742,2.344-1.523,4.609-2.344,6.797
	c-0.469,1.211-1.094,2.461-1.875,3.75l-0.938,0.938c-0.586,0.273-1.603,0.43-3.047,0.469c-0.273-0.117-0.665-0.352-1.172-0.703
	c-0.273-0.272-0.586-0.507-0.938-0.703c-0.273,0.938-0.431,1.954-0.469,3.047v1.641v1.875c-0.273,3.281-2.54,4.922-6.797,4.922
	c-4.688-1.523-7.266-5.117-7.734-10.781c-0.117-1.21-0.196-2.93-0.234-5.156c0.117-1.055,0.195-2.695,0.234-4.922
	c0.272-3.75,0.664-6.563,1.172-8.438c0-0.273-0.079-0.507-0.234-0.703c-0.273-1.21-0.508-1.914-0.703-2.109l-1.406-0.938
	C199.512,21.898,199.278,21.586,199.746,21.547z M216.387,32.797c0.272,0.117,0.507,0.195,0.703,0.234
	c0.938,0.273,1.796,0.43,2.578,0.469c1.523-1.523,2.305-3.477,2.344-5.859c-0.469-1.406-1.017-2.265-1.641-2.578l-0.938-0.469
	c-1.68,0.469-2.774,1.25-3.281,2.344c-0.117,0.117-0.196,0.977-0.234,2.578c0.117,1.055,0.195,2.07,0.234,3.047
	C216.27,32.68,216.348,32.758,216.387,32.797z"/>
<path fill="#FFFFFF" d="M242.168,28.813c0.586-2.344,2.461-4.062,5.625-5.156c4.805-2.148,9.57-3.242,14.297-3.281
	c3.554,0.586,5.819,3.164,6.797,7.734c-0.586,1.211-1.523,1.836-2.813,1.875c-0.938-0.117-2.423-0.195-4.453-0.234
	c-0.586,0.117-1.289,0.195-2.109,0.234c-0.586,0.273-1.055,0.586-1.406,0.938c0.586,2.148,1.758,3.242,3.516,3.281l0.938-0.938
	c1.21-1.523,2.226-2.383,3.046-2.578c1.875,0.586,2.813,1.992,2.813,4.219c-0.273,1.211-0.664,2.383-1.172,3.516
	c-1.523,4.688-3.788,7.266-6.796,7.734c-2.344-0.742-5.001-2.227-7.969-4.453c-1.68-1.211-4.023-3.32-7.031-6.328
	C242.637,32.563,241.543,30.375,242.168,28.813z M258.574,26.703c0.272,0,0.43-0.078,0.469-0.234c0.741,0,1.523-0.078,2.344-0.234
	c0.469,0,1.172-0.156,2.109-0.469c-0.938-0.938-2.109-1.406-3.516-1.406c-0.742,0.586-1.289,1.289-1.641,2.109
	C258.457,26.586,258.535,26.665,258.574,26.703z"/>
<path fill="#FFFFFF" d="M282.538,21.313c1.68-0.586,4.414-0.898,8.203-0.938c2.461,0.274,4.883,0.82,7.266,1.641
	c1.21-0.938,2.773-1.484,4.688-1.641c2.813,0.274,4.219,1.602,4.219,3.984c-0.742,0.938-1.602,1.563-2.578,1.875l-0.938-0.469
	c-1.211-0.586-2.07-0.898-2.578-0.938c-0.938,0.743-1.406,2.071-1.406,3.984c0,0.586,0,1.133,0,1.641
	c0.117,0.742,0.195,1.445,0.234,2.109c0.273,2.461,0.43,4.57,0.47,6.328c0,0.273-0.079,0.508-0.235,0.703
	c0,1.211-0.078,2.148-0.234,2.813c0,1.055-0.234,1.914-0.703,2.578c-0.742,1.055-2.383,1.602-4.922,1.641
	c-3.75-0.586-6.25-2.461-7.5-5.625c-0.742-2.461-1.133-5.82-1.172-10.078c0.273-2.461,0.586-4.336,0.938-5.625
	c-0.742-1.21-1.445-2.07-2.109-2.578c-0.117-0.117-0.508-0.352-1.172-0.703C282.538,21.547,282.382,21.313,282.538,21.313z"/>
<path fill="#FFFFFF" d="M313.007,33.031c1.407-1.523,4.375-2.305,8.907-2.344c0.938,0,1.796,0,2.578,0
	c1.21,0,2.07,0.234,2.577,0.703c0.47,0.469,0.703,0.859,0.703,1.172c0,0.273,0.156,0.742,0.47,1.406
	c0.272,0.469,0.82,0.859,1.64,1.172c0.273,0.117,0.508,0.195,0.703,0.234c0.273-0.117,0.508-0.352,0.703-0.703
	c0.742-0.469,1.133-1.25,1.172-2.344c-1.055-1.055-2.852-1.758-5.391-2.109c-3.085-0.273-5.352-0.586-6.797-0.938
	c-2.344-0.469-3.828-1.718-4.453-3.75c0.938-2.148,3.203-3.633,6.798-4.453c2.147-0.273,3.71-0.507,4.688-0.703
	c1.522,0,3.008,0,4.452,0c0.47,0,0.859,0.079,1.173,0.234h1.406c0-0.117,0.078-0.195,0.234-0.234
	c2.344,1.055,3.516,3.008,3.516,5.859c-0.469,0.469-0.859,0.703-1.172,0.703c-0.117,0.117-0.508,0.196-1.172,0.234
	c-0.273-0.117-0.742-0.507-1.407-1.172c-0.469-0.273-0.938-0.664-1.406-1.172c-1.523-0.742-2.539-1.132-3.047-1.172
	c-0.586,0.469-0.977,1.016-1.172,1.641c0.469,0.469,1.172,0.86,2.109,1.172c1.21,0.469,2.461,0.86,3.75,1.172
	c1.523,0.586,2.539,1.289,3.047,2.109c0.469,0.742,0.703,2.305,0.703,4.688c-0.586,3.555-1.445,6.289-2.578,8.203
	c-1.68,2.461-4.023,3.711-7.031,3.75c-6.211-2.148-10.664-4.805-13.359-7.969l-0.469-0.469
	C312.89,35.336,312.265,33.695,313.007,33.031z"/>
<path fill="#FFFFFF" d="M357.597,5.199c1.523-3.398,4.18-5.117,7.969-5.156c2.617,1.406,3.945,4.375,3.985,8.906v3.75
	c0,0.274-0.079,0.508-0.235,0.703c0,0.938-0.078,1.875-0.234,2.813c-0.273,1.68-0.508,2.618-0.703,2.813
	c-1.055,1.992-3.711,3.008-7.969,3.047c-0.742-0.273-1.523-0.664-2.344-1.172c2.461-2.813,3.711-5.234,3.75-7.266
	c-0.469-0.586-1.017-1.132-1.641-1.641l-1.406-1.406C356.894,8.715,356.503,6.918,357.597,5.199z"/>
<path fill="#A80100" d="M431.249,26.234c1.055-3.398,2.54-6.054,4.453-7.969c0.273-0.273,0.43-0.507,0.47-0.703
	c0.741-0.586,1.444-1.21,2.109-1.875c0.938-0.469,1.641-1.093,2.109-1.875c0.586-0.742,1.367-1.914,2.344-3.516
	c2.93-4.336,6.211-6.523,9.844-6.563c0.272,0.274,0.507,0.43,0.703,0.469c1.21,0.938,2.147,1.563,2.813,1.875
	c0.272-0.273,0.586-0.429,0.938-0.469c0.938,1.406,1.875,3.672,2.813,6.797l0.938,2.344c0.741,1.523,1.133,2.305,1.172,2.344
	c0.938,1.523,1.484,2.93,1.641,4.219c-1.406,1.523-3.36,2.306-5.859,2.344c-0.469-0.469-0.782-0.858-0.938-1.172
	c-0.273-0.586-0.586-1.055-0.938-1.406c-1.406-2.617-3.047-3.945-4.922-3.984c-2.617,1.992-3.946,5.352-3.984,10.078
	c0.586,4.219,2.539,6.328,5.859,6.328c0.586-0.273,1.133-0.508,1.641-0.703c0.469-0.273,0.938-0.664,1.406-1.172
	c0.117-0.117,0.195-0.352,0.234-0.703c0.272-1.211,0.586-1.914,0.938-2.109c0.117-0.117,0.507-0.195,1.172-0.234h1.406
	c0.272,0.117,0.507,0.196,0.703,0.234c2.461,0.586,4.022,1.445,4.688,2.578c-0.742,1.055-1.914,2.148-3.516,3.281
	c-1.211,0.938-2.306,2.031-3.281,3.281c-0.469,0.273-0.703,0.665-0.703,1.172c-0.273,0.938-0.431,1.485-0.469,1.641
	c-1.406,2.344-3.595,3.906-6.563,4.688c-2.93-1.055-5.118-2.227-6.563-3.516c-0.273-0.272-0.665-0.664-1.172-1.172
	c-0.938-1.055-1.954-2.227-3.047-3.516c-0.938-0.586-1.797-1.132-2.578-1.641c-0.938-0.469-1.797-1.094-2.578-1.875
	C431.601,30.805,430.507,28.305,431.249,26.234z"/>
<rect id="_x3C_切片_x3E__5_" x="0.248" fill="none" width="464.751" height="55.541"/>
</svg>
