<?xml version="1.0" encoding="utf-8"?>
<!-- Generator: Adobe Illustrator 15.0.0, SVG Export Plug-In . SVG Version: 6.00 Build 0)  -->
<!DOCTYPE svg PUBLIC "-//W3C//DTD SVG 1.1//EN" "http://www.w3.org/Graphics/SVG/1.1/DTD/svg11.dtd">
<svg version="1.1" id="图层_1" xmlns="http://www.w3.org/2000/svg" xmlns:xlink="http://www.w3.org/1999/xlink" x="0px" y="0px"
	 width="200px" height="200px" viewBox="0 0 200 200" enable-background="new 0 0 200 200" xml:space="preserve">
<polygon fill="#FFFFFF" points="72.564,21.887 63.627,30.836 66.75,46.125 67.958,54.792 71.208,59.667 64.5,92.167 70.167,108.834 
	72.167,126.834 65.5,143.833 85.167,167.167 114.167,161.833 141.5,133.833 169.167,99.833 115.5,41.167 86.167,22.5 "/>
<path fill="rgb(233,54,40)" d="M196.205,91.075L108.887,3.763c-5.037-5.026-13.193-5.026-18.23,0L72.564,21.887l22.998,22.999
	c8.019-2.708,16.713,1.598,19.421,9.616c1.083,3.209,1.073,6.687-0.028,9.889l22.148,22.167c7.992-2.772,16.719,1.46,19.49,9.453
	c1.926,5.554,0.504,11.72-3.66,15.871c-5.971,5.982-15.662,5.992-21.645,0.021c-0.008-0.008-0.016-0.015-0.023-0.021
	c-4.356-4.366-5.683-10.914-3.368-16.631l-20.742-20.629v54.371c1.469,0.719,2.851,1.694,4.069,2.899c5.943,6,5.943,15.668,0,21.668
	c-6.004,6.004-15.739,6.004-21.743,0l0,0c-5.978-5.957-5.996-15.631-0.039-21.609c0.013-0.014,0.026-0.026,0.039-0.039
	c1.519-1.5,3.225-2.631,5.043-3.381V73.627c-1.873-0.771-3.572-1.907-5-3.344c-4.404-4.39-5.709-11.01-3.3-16.743L63.627,30.836
	L3.75,90.675c-5,5.043-5,13.2,0,18.243l87.325,87.3c5.03,5.03,13.185,5.031,18.216,0.002c0-0.001,0.001-0.001,0.002-0.002
	l86.912-86.913c5.032-5.018,5.044-13.165,0.025-18.197c-0.008-0.008-0.017-0.017-0.025-0.026V91.075z"/>
</svg>
