<?xml version="1.0" standalone="no"?><!DOCTYPE svg PUBLIC "-//W3C//DTD SVG 1.1//EN" "http://www.w3.org/Graphics/SVG/1.1/DTD/svg11.dtd"><svg t="1563342027873" class="icon" viewBox="0 0 1024 1024" version="1.1" xmlns="http://www.w3.org/2000/svg" p-id="2182" xmlns:xlink="http://www.w3.org/1999/xlink" width="160" height="160"><defs><style type="text/css"></style></defs><path d="M511.97238362 15.03538821C237.46122714 15.03538821 14.8973037 243.23314221 14.8973037 524.67611875c0 225.18752142 142.41992249 416.18542364 339.93539381 483.57045666 24.85513482 4.72247562 33.99630063-11.07434383 33.99630064-24.52373301 0-12.17901605-0.4971027-52.30624994-0.69041998-94.86376454-138.30501642 30.82036717-167.44075821-60.12180987-167.4407582-60.12180986-22.61817268-58.93428589-55.17839929-74.59302082-55.17839929-74.59302084-45.09826085-31.67648805 3.42448481-30.95845168 3.4244848-30.95845169 49.90358691 3.56256933 76.16717937 52.49956852 76.16718067 52.49956853 44.35260682 77.90703882 116.32203093 55.37171658 144.62926694 42.36419602 4.47392427-32.94686246 17.34336031-55.42695063 31.56602122-68.15830347-110.41203265-12.86943604-226.48551222-56.55924054-226.48551094-251.8929825 0-55.62026791 19.44223922-101.10516463 51.20157773-136.78609192-5.16434425-12.86943604-22.17630405-64.6509669 4.77770838-134.85291522 0 0 41.75662649-13.69794053 136.75847555 52.2234008a466.0061614 466.0061614 0 0 1 124.3861409-17.15004303c42.25372918 0.19331728 84.81124379 5.85476553 124.52422542 17.15004303 94.86376453-65.92134132 136.56515697-52.22339949 136.56515827-52.2234008 27.03686288 70.20194701 10.05252077 122.06632833 4.9157929 134.85291522 31.86980662 35.6809273 51.14634365 81.16582401 51.14634366 136.78609192 0 195.7479955-116.32203093 238.83022918-226.98261364 251.45111388 17.840463 15.79681945 33.74774928 46.8105039 33.74774929 94.33904547 0 68.15830346-0.55233676 123.0881514-0.55233676 139.82394088 0 13.55985731 8.94784853 29.43952592 34.16200282 24.46850024C866.87609108 940.58537467 1009.1026963 749.61508883 1009.1026963 524.53803424 1009.1026963 243.0950577 786.53877286 14.8973037 512.02761638 14.8973037l-0.05523276 0.13808451z m0 0" fill="#ffffff" p-id="2183"></path></svg>