<?xml version="1.0" encoding="utf-8"?>
<!-- Generator: Adobe Illustrator 15.0.0, SVG Export Plug-In . SVG Version: 6.00 Build 0)  -->
<!DOCTYPE svg PUBLIC "-//W3C//DTD SVG 1.1//EN" "http://www.w3.org/Graphics/SVG/1.1/DTD/svg11.dtd">
<svg version="1.1" id="图层_1" xmlns="http://www.w3.org/2000/svg" xmlns:xlink="http://www.w3.org/1999/xlink" x="0px" y="0px"
	 width="42px" height="57px" viewBox="0 0 42 57" enable-background="new 0 0 42 57" xml:space="preserve">
<path fill="#FFFFFF" d="M14.562,7.042c1.055-2.461,3.085-3.71,6.094-3.75c4.336,0.743,7.227,2.461,8.672,5.156
	c0.586,1.523,1.055,3.477,1.406,5.859c0.117,1.523,0.195,3.711,0.234,6.563c-0.117,0.586-0.196,1.758-0.234,3.516l0.938,0.469
	c1.21-0.938,2.227-1.641,3.047-2.109c1.406-1.055,2.265-1.914,2.578-2.578c0.117-0.586,0.272-1.289,0.469-2.109
	c0.272-0.586,0.741-1.055,1.407-1.406c0.469,0.743,0.857,1.602,1.172,2.578c0.271,0.743,0.506,1.68,0.703,2.813
	c-0.47,0.938-1.875,2.266-4.22,3.984c-0.273,0.274-0.742,0.586-1.406,0.938c-0.273,0.274-0.665,0.586-1.172,0.938
	c0.117,0.117,0.272,0.196,0.469,0.234c0.741,0.469,2.07,1.329,3.984,2.578c1.407,1.055,2.422,2.227,3.047,3.516
	c0.117,0.469,0.195,1.172,0.234,2.109v2.344c0,0.469-0.079,0.86-0.234,1.172c0,0.469-0.079,0.86-0.234,1.172
	c-0.586,2.813-1.523,4.532-2.813,5.156c-0.586-0.741-1.211-2.069-1.875-3.984c-0.273-1.406-0.665-2.813-1.172-4.219
	c-0.938-3.085-2.423-5.351-4.453-6.797c-0.117,0.117-0.196,0.509-0.234,1.172c0.117,0.469,0.352,1.485,0.703,3.047
	c-0.117,0.469-0.196,1.251-0.234,2.344c0,0.938,0,1.798,0,2.578c-0.469,4.219-2.5,6.328-6.094,6.328
	c-4.688-1.679-7.266-5.116-7.734-10.313c-0.117-1.055-0.196-2.616-0.234-4.688c0.117-0.938,0.195-2.344,0.234-4.219
	c0.272-1.875,0.507-3.75,0.703-5.625c0.117-1.055,0.195-2.851,0.234-5.391c0-0.117-0.079-0.352-0.234-0.703
	c-0.469-1.406-0.625-1.953-0.469-1.641c-0.117-0.117-0.273-0.352-0.469-0.703C15.03,10.285,14.093,8.175,14.562,7.042z"/>
<rect id="_x3C_切片_x3E__5_" x="0.469" fill="none" width="41.531" height="55.547"/>
</svg>
