<?xml version="1.0" standalone="no"?><!DOCTYPE svg PUBLIC "-//W3C//DTD SVG 1.1//EN" "http://www.w3.org/Graphics/SVG/1.1/DTD/svg11.dtd"><svg t="1553437890066" class="icon" style="" viewBox="0 0 1024 1024" version="1.1" xmlns="http://www.w3.org/2000/svg" p-id="22574" xmlns:xlink="http://www.w3.org/1999/xlink" width="200" height="200"><defs><style type="text/css"></style></defs><path d="M454.8 292.3c-46.1 14.8-84.2 46.6-107.2 89.4-3.1 5.8-1 13.1 4.9 16.3 1.8 1 3.8 1.4 5.7 1.4 4.3 0 8.4-2.3 10.6-6.3 20.1-37.3 53.2-65 93.4-77.9 6.3-2 9.8-8.8 7.7-15.1-2-6.4-8.8-9.9-15.1-7.8z" fill="#ffffff" p-id="22575"></path><path d="M706.1 706.8c29.2-23.9 53.9-53.2 72.5-86.1 25.9-45.8 39.7-97.9 39.7-150.8 0-81.8-31.9-158.7-89.7-216.5-57.8-57.8-134.7-89.7-216.5-89.7-81.8 0-158.7 31.9-216.5 89.7-57.8 57.8-89.7 134.7-89.7 216.5 0 52.9 13.7 105.1 39.7 150.8 18.7 32.9 43.4 62.1 72.5 86.1H179.8v12c0 70.6 57.5 128.1 128.1 128.1H718c70.6 0 128.1-57.5 128.1-128.1v-12h-140zM229.8 469.9c0-155.6 126.6-282.2 282.2-282.2s282.2 126.6 282.2 282.2c0 96.4-48 184.6-128.8 236.9h-128c54-5.7 104.1-29.5 143-68.4 45-45 69.8-104.8 69.8-168.5s-24.8-123.5-69.8-168.5-104.8-69.8-168.5-69.8-123.5 24.8-168.5 69.8-69.8 104.8-69.8 168.5 24.8 123.5 69.8 168.5c38.9 38.9 89 62.7 143 68.4h-128c-80.6-52.3-128.6-140.5-128.6-236.9zM512 684.2c-118.1 0-214.3-96.1-214.3-214.3S393.9 255.6 512 255.6s214.3 96.1 214.3 214.3S630.2 684.2 512 684.2z m206 138.7H307.8c-53.3 0-97.4-40.3-103.4-92.1h617c-6 51.8-50.1 92.1-103.4 92.1z" fill="#ffffff" p-id="22576"></path></svg>