<?xml version="1.0" encoding="utf-8"?>
<!-- Generator: Adobe Illustrator 15.0.0, SVG Export Plug-In  -->
<!DOCTYPE svg PUBLIC "-//W3C//DTD SVG 1.1//EN" "http://www.w3.org/Graphics/SVG/1.1/DTD/svg11.dtd" [
	<!ENTITY ns_flows "http://ns.adobe.com/Flows/1.0/">
]>
<svg version="1.1"
	 xmlns="http://www.w3.org/2000/svg" xmlns:xlink="http://www.w3.org/1999/xlink" xmlns:a="http://ns.adobe.com/AdobeSVGViewerExtensions/3.0/"
	 x="0px" y="0px" width="156px" height="141px" viewBox="-0.417 -0.688 156 141" enable-background="new -0.417 -0.688 156 141"
	 xml:space="preserve">
<defs>
</defs>
<path fill-rule="evenodd" clip-rule="evenodd" fill="#E70303" d="M101.221,11.964c-0.141,0.585-0.714,0.937-1.009,1.711
	c-0.66,1.744-0.426,4.242-0.1,6.146c-5.771-0.099-11.458,0.21-16.02-1.51c-1.2-0.454-3.026-1.406-3.022-2.721
	c0.002-0.828,0.979-1.653,1.311-2.318c1.095-2.2,0.905-5.329-0.303-7.455c-0.48-0.847-1.743-1.876-1.813-2.721
	c-0.106-1.281,1.386-2.749,2.619-2.921c1.228-0.172,2.921,0.132,4.131,0.503C92.908,2.493,98.538,6.876,101.221,11.964z"/>
<path fill-rule="evenodd" clip-rule="evenodd" fill="#E70303" d="M79.963,9.646c-2.544,3.145-5.886,5.166-9.471,7.556
	c-0.996,0.664-2.403,2.02-3.526,2.116c-2.319,0.201-2.199-1.447-2.821-2.82c-0.688-1.519-2.305-2.793-3.93-3.527
	c-1.179-0.532-3.225-0.689-3.829-1.612c-0.557-0.851-0.519-2.745,0-3.829c1.371-2.862,8.725-4.39,12.896-4.634
	c0.967-0.057,2.19,0.033,3.324,0.101c1.167,0.068,2.543-0.031,3.224,0.201c0.977,0.331,1.897,2.012,2.418,2.921
	C78.937,7.32,79.264,8.366,79.963,9.646z"/>
<path fill-rule="evenodd" clip-rule="evenodd" fill="#FFFFFF" d="M118.65,33.322c-0.738,0.144-1.17,0.184-1.613,0.404
	c-1.297,0.648-1.388,2.139-2.316,3.021c-0.46,0.44-2.225,0.921-3.124,0.807c-1.001-0.127-3.391-1.791-4.331-2.418
	c-3.796-2.534-7.915-6.495-8.866-11.184c3.364-0.687,5.781-1.706,6.146-5.239c0.135-1.321-0.394-2.871-0.103-4.333
	c0.252-1.258,1.977-2.302,3.628-2.317c1.172-0.01,2.31,0.829,3.225,1.611c3.396,2.913,5.228,7.688,7.052,12.998
	C119.123,28.928,120.239,31.416,118.65,33.322z"/>
<path fill-rule="evenodd" clip-rule="evenodd" fill="#E70303" d="M56.286,15.188c2.541-0.208,3.333,0.655,3.829,3.021
	c0.246,1.174,0.557,3.147,0.201,4.333c-0.221,0.736-1.385,1.785-2.015,2.518c-0.667,0.776-1.463,1.641-2.116,2.419
	c-1.203,1.434-2.875,4.223-4.633,4.333c-2.25,0.14-4.142-2.401-4.232-4.635c-0.097-2.423,0.916-4.369,2.116-6.447
	c1.611-2.792,2.84-5.521,6.649-5.542C56.151,15.188,56.22,15.193,56.286,15.188z"/>
<path fill-rule="evenodd" clip-rule="evenodd" fill="#E70303" d="M58.2,62.742c0.618-2.502,1.193-5.394,1.007-8.16
	c-0.458-6.825-5.758-10.341-11.283-12.192c-0.821-1.218-1.602-2.069-1.613-3.727c-0.012-2.018,1.813-4.465,3.929-4.736
	c1.258-0.161,2.98,0.169,4.232,0.807c2.106,1.072,3.289,4.06,4.331,6.549c1.027,2.446,2.203,5.306,2.721,8.06
	C62.553,54.802,60.216,59.36,58.2,62.742z"/>
<path fill-rule="evenodd" clip-rule="evenodd" fill="#FFFFFF" d="M120.362,36.446c5.077,1.878,3.176,8.271,2.22,13.804
	c-0.493,2.829-0.793,5.968-1.815,8.06c-0.701,1.433-2.212,2.468-2.821,3.627c-2.021-0.498-4.035-0.959-6.044-0.403
	c-0.722,0.198-1.406,0.965-2.117,1.008c-1.1,0.066-2.258-1.288-2.72-2.116c-0.644-1.152-0.895-2.858-1.411-4.434
	c-1.348-4.119-2.433-10.707,0.403-14.204c2.216,0.626,4.587,1.567,6.649,0.805c1.187-0.437,2.502-2.073,3.627-3.022
	C117.751,38.375,119.116,37.229,120.362,36.446z"/>
<path fill-rule="evenodd" clip-rule="evenodd" fill="#FFFFFF" d="M100.616,59.519c1.964,3.939,5.563,6.378,11.385,6.146
	c0.485-0.021,1.085-0.313,1.713-0.202c1.307,0.23,2.552,2.617,2.62,4.533c0.153,4.303-2.929,5.864-5.239,7.758
	c-3.969,3.253-8.516,6.566-14.911,7.255c-2.492-2.715-4.451-5.962-9.673-5.944c-0.459-4.266,2.316-7.79,4.836-11.184
	C93.515,64.962,96.741,60.24,100.616,59.519z"/>
<path fill-rule="evenodd" clip-rule="evenodd" fill="#FFFFFF" d="M79.963,73.825c0.213,6.704,3.98,9.855,10.075,10.679
	c-0.742,8.199-8.464,10.666-17.229,11.084c-3.483,0.163-7.191-0.425-9.47-1.813c-0.658-0.402-1.285-0.976-1.915-1.411
	c-1.848-1.28-3.92-2.833-5.239-4.636c1.477-2.172,3.737-4.14,5.844-6.245C66.124,77.387,71.728,72.707,79.963,73.825z"/>
<path fill="#FFFFFF" d="M5.813,139.471h-4.5v-13.813h4.313c4.958,0.042,7.479,2.313,7.563,6.813
	C13.354,137.305,10.896,139.637,5.813,139.471z M5.563,128.221H4.501v8.813h1.063c2.916,0.042,4.354-1.479,4.313-4.563
	C9.792,129.68,8.354,128.263,5.563,128.221z"/>
<path fill="#FFFFFF" d="M32.563,132.658c-0.25,4.459-2.521,6.813-6.813,7.063c-4.334-0.25-6.625-2.604-6.875-7.063
	c0.208-4.625,2.5-7.021,6.875-7.188C30.001,125.721,32.271,128.117,32.563,132.658z M29.126,132.658
	c-0.084-2.875-1.229-4.375-3.438-4.5c-2.25,0.125-3.438,1.625-3.563,4.5c0.083,2.834,1.25,4.313,3.5,4.438
	C27.876,137.013,29.042,135.533,29.126,132.658z"/>
<path fill="#FFFFFF" d="M52.001,132.658c-0.25,4.459-2.521,6.813-6.813,7.063c-4.334-0.25-6.625-2.604-6.875-7.063
	c0.208-4.625,2.5-7.021,6.875-7.188C49.438,125.721,51.709,128.117,52.001,132.658z M48.563,132.658
	c-0.084-2.875-1.229-4.375-3.438-4.5c-2.25,0.125-3.438,1.625-3.563,4.5c0.083,2.834,1.25,4.313,3.5,4.438
	C47.313,137.013,48.479,135.533,48.563,132.658z"/>
<path fill="#FFFFFF" d="M71.251,139.408h-3.938l-4-5.813l-2.063,2.25v3.625h-3.125v-13.813h3.125v6.313l5.688-6.25h3.875l-5.5,5.813
	L71.251,139.408z"/>
<path fill="#E70303" d="M92.501,139.471h-6.75v-13.813h6.438c3.041,0.084,4.666,1.188,4.875,3.313c0,1.625-0.896,2.709-2.688,3.25
	c1.916,0.417,3,1.479,3.25,3.188C97.626,138.117,95.917,139.471,92.501,139.471z M91.688,127.971h-2.813v3.313h2.813
	c1.333-0.041,2.021-0.625,2.063-1.75C93.709,128.533,93.021,128.013,91.688,127.971z M92.001,133.596h-3.125v3.688h3.063
	c1.541,0,2.333-0.625,2.375-1.875C94.229,134.242,93.459,133.638,92.001,133.596z"/>
<path fill="#E70303" d="M117.001,132.658c-0.25,4.459-2.521,6.813-6.813,7.063c-4.334-0.25-6.625-2.604-6.875-7.063
	c0.208-4.625,2.5-7.021,6.875-7.188C114.438,125.721,116.709,128.117,117.001,132.658z M113.563,132.658
	c-0.084-2.875-1.229-4.375-3.438-4.5c-2.25,0.125-3.438,1.625-3.563,4.5c0.083,2.834,1.25,4.313,3.5,4.438
	C112.313,137.013,113.479,135.533,113.563,132.658z"/>
<path fill="#E70303" d="M136.438,132.658c-0.25,4.459-2.521,6.813-6.813,7.063c-4.334-0.25-6.625-2.604-6.875-7.063
	c0.208-4.625,2.5-7.021,6.875-7.188C133.876,125.721,136.146,128.117,136.438,132.658z M133.001,132.658
	c-0.084-2.875-1.229-4.375-3.438-4.5c-2.25,0.125-3.438,1.625-3.563,4.5c0.083,2.834,1.25,4.313,3.5,4.438
	C131.751,137.013,132.917,135.533,133.001,132.658z"/>
<path fill="#E70303" d="M155.688,139.408h-3.938l-4-5.813l-2.063,2.25v3.625h-3.125v-13.813h3.125v6.313l5.688-6.25h3.875
	l-5.5,5.813L155.688,139.408z"/>
<rect id="_x3C_切片_x3E__1_" fill-rule="evenodd" clip-rule="evenodd" fill="none" width="155.583" height="140.313"/>
</svg>
