<svg xmlns="http://www.w3.org/2000/svg" width="278.409" height="38.826" viewBox="0 0 1174 164" shape-rendering="geometricPrecision" text-rendering="geometricPrecision" image-rendering="optimizeQuality" fill-rule="evenodd" clip-rule="evenodd"><defs><style>.fil0,.fil1{fill:#1eadf4}.fil0{fill-rule:nonzero}</style></defs><g id="图层_x0020_1"><path class="fil0" d="M0 0h74c15 0 26 2 35 6s16 10 22 17 10 16 13 26 4 20 4 31c0 17-2 31-6 40s-9 17-16 24c-7 6-14 11-22 13-11 3-21 4-30 4H0V0zm50 36v88h12c10 0 18-1 22-3s8-6 10-12c3-6 4-15 4-28 0-17-3-29-8-35-6-6-15-9-28-9H50zm113 67c0-18 6-33 18-44 12-12 28-17 49-17 23 0 41 7 53 20 10 11 14 24 14 40 0 18-6 33-18 44s-28 17-49 17c-19 0-34-5-45-14-14-12-21-27-21-46zm45 0c0 10 2 18 6 23s9 7 16 7c6 0 12-2 16-7s6-13 6-24c0-10-2-18-6-23s-9-7-15-7-12 3-16 8-6 13-6 23zm102 0c0-18 6-33 18-44 12-12 28-17 49-17 23 0 41 7 53 20 10 11 14 24 14 40 0 18-6 33-18 44s-28 17-49 17c-19 0-34-5-45-14-14-12-21-27-21-46zm45 0c0 10 2 18 6 23s9 7 16 7c6 0 12-2 16-7s6-13 6-24c0-10-2-18-6-23s-9-7-15-7-12 3-16 8-6 13-6 23zM462 0h46v83l33-39h55l-42 41 44 76h-50l-24-47-17 16v30h-46V-1zm147 0h45v56c4-5 10-8 15-11 6-2 12-3 19-3 14 0 26 5 35 15s14 25 14 44c0 13-2 24-6 34s-10 17-18 22c-7 5-16 7-25 7-8 0-15-2-22-5-5-3-10-8-16-15v17h-42V0zm45 102c0 10 2 17 6 22s9 7 14 7 10-2 13-7c4-4 5-12 5-22 0-9-2-16-5-20-4-4-8-7-13-7-6 0-11 2-15 7s-6 11-6 21zm384-99h45v83l34-39h55l-42 41 44 76h-50l-24-47-17 16v31h-45z"/><g id="_869967504"><path class="fil1" d="M812 120c-10 0-19-8-19-19 0-10 8-19 19-19 10 0 19 8 19 19 0 10-8 19-19 19zm-10-18c3 0 6-3 6-6 0-2-1-3-2-4s-3-2-4-2c-2 0-3 1-4 2s-2 3-2 4c0 2 1 3 2 4s3 2 4 2zm156 18c-10 0-19-8-19-19 0-10 8-19 19-19 10 0 19 8 19 19 0 10-8 19-19 19zm-10-18c3 0 6-3 6-6 0-2-1-3-2-4s-3-2-4-2c-2 0-3 1-4 2s-2 3-2 4c0 2 1 3 2 4s3 2 4 2z"/><path class="fil0" d="M750 98c0-11 3-21 8-31s13-18 23-23 21-8 33-8c19 0 34 6 46 18s18 27 18 46-6 34-18 46-27 18-45 18c-11 0-22-3-32-8s-18-13-23-22c-5-10-8-22-8-36zm33 2c0 12 3 21 9 28 6 6 13 10 21 10s16-3 21-10c6-6 9-16 9-28s-3-21-9-28c-6-6-13-10-21-10s-16 3-21 10c-6 6-9 16-9 28zm111-2c0-11 3-21 8-31s13-18 23-23 21-8 33-8c19 0 34 6 46 18s18 27 18 46-6 34-18 46-27 18-45 18c-11 0-22-3-32-8s-18-13-23-22c-5-10-8-22-8-36zm33 2c0 12 3 21 9 28 6 6 13 10 21 10s16-3 21-10c6-6 9-16 9-28s-3-21-9-28c-6-6-13-10-21-10s-16 3-21 10c-6 6-9 16-9 28z"/><path class="fil1" d="M874 91h26v17h-26z"/></g></g></svg>