<svg width="437" height="57" xmlns="http://www.w3.org/2000/svg">
 <g stroke="null">
  <title>background</title>
  <rect x="-1" y="-1" width="439" height="59" id="canvas_background" fill="none" stroke="null"/>
 </g>

 <g stroke="null">
  <title>Layer 1</title>
  <path fill="#FFFFFF" d="m15.027465,28.96637c0.586,-2.344 2.461,-4.062 5.625,-5.156c4.805,-2.148 9.57,-3.242 14.297,-3.281c3.554,0.586 5.82,3.164 6.797,7.734c-0.586,1.211 -1.523,1.836 -2.813,1.875c-0.938,-0.117 -2.423,-0.195 -4.453,-0.234c-0.586,0.117 -1.289,0.195 -2.109,0.234c-0.586,0.273 -1.055,0.586 -1.406,0.938c0.586,2.148 1.758,3.242 3.516,3.281l0.938,-0.938c1.21,-1.523 2.227,-2.383 3.047,-2.578c1.875,0.586 2.813,1.992 2.813,4.219c-0.273,1.211 -0.665,2.383 -1.172,3.516c-1.523,4.688 -3.789,7.266 -6.797,7.734c-2.344,-0.742 -5.001,-2.227 -7.969,-4.453c-1.68,-1.211 -4.023,-3.32 -7.031,-6.328c-2.814,-2.813 -3.908,-5.001 -3.283,-6.563zm16.406,-2.11c0.272,0 0.43,-0.078 0.469,-0.234c0.741,0 1.523,-0.078 2.344,-0.234c0.469,0 1.172,-0.156 2.109,-0.469c-0.938,-0.938 -2.109,-1.406 -3.516,-1.406c-0.742,0.586 -1.289,1.289 -1.641,2.109c0.118,0.117 0.196,0.196 0.235,0.234z" id="svg_1" stroke="null"/>
  <path fill="#FFFFFF" d="m52.351465,21.93437c1.523,-0.938 4.18,-1.406 7.969,-1.406c0.938,0 1.719,0.079 2.344,0.234c3.554,0 5.977,0.703 7.266,2.109c0.586,0.743 0.976,1.602 1.172,2.578l2.109,6.328c0.741,-1.523 1.444,-3.085 2.109,-4.688c0.938,-2.148 1.484,-3.789 1.641,-4.922c-0.273,-0.586 -0.431,-0.976 -0.469,-1.172c0.586,-0.273 0.898,-0.429 0.938,-0.469c0.117,-0.117 0.43,-0.195 0.938,-0.234c0.741,0.274 1.444,0.508 2.109,0.703c1.055,0.469 1.679,1.406 1.875,2.813c-0.273,0.938 -0.586,1.641 -0.938,2.109c-0.117,0.938 -0.586,1.875 -1.406,2.813c-0.469,1.055 -0.938,2.07 -1.406,3.047c-0.938,1.875 -1.641,3.906 -2.109,6.094c0,0.469 -0.079,0.859 -0.234,1.172c0,0.586 -0.079,0.977 -0.234,1.172c0,0.586 -0.156,1.367 -0.469,2.344c-0.586,1.875 -1.523,2.969 -2.813,3.281c-1.055,-0.938 -1.837,-2.188 -2.344,-3.75c-0.117,-0.586 -0.273,-1.289 -0.47,-2.109c0,-0.273 -0.156,-1.055 -0.469,-2.344c-0.273,-1.211 -0.586,-2.07 -0.938,-2.578c-0.742,-1.406 -2.227,-2.891 -4.453,-4.453c-0.586,-0.586 -1.055,-0.977 -1.406,-1.172c-1.055,-0.938 -2.148,-1.953 -3.281,-3.047c-1.211,-1.21 -2.306,-2.07 -3.281,-2.578c0.272,0.117 -0.586,-0.117 -2.578,-0.703c-0.273,0 -0.508,-0.078 -0.703,-0.234c-0.586,-0.586 -0.742,-0.898 -0.469,-0.938z" id="svg_2" stroke="null"/>
  <path fill="#FFFFFF" d="m95.652465,28.96637c0.586,-2.344 2.461,-4.062 5.625,-5.156c4.805,-2.148 9.57,-3.242 14.297,-3.281c3.554,0.586 5.82,3.164 6.797,7.734c-0.586,1.211 -1.523,1.836 -2.813,1.875c-0.938,-0.117 -2.423,-0.195 -4.453,-0.234c-0.586,0.117 -1.289,0.195 -2.109,0.234c-0.586,0.273 -1.055,0.586 -1.406,0.938c0.586,2.148 1.758,3.242 3.516,3.281l0.938,-0.938c1.21,-1.523 2.227,-2.383 3.047,-2.578c1.875,0.586 2.813,1.992 2.813,4.219c-0.273,1.211 -0.665,2.383 -1.172,3.516c-1.523,4.688 -3.789,7.266 -6.797,7.734c-2.344,-0.742 -5.001,-2.227 -7.969,-4.453c-1.68,-1.211 -4.023,-3.32 -7.031,-6.328c-2.814,-2.813 -3.908,-5.001 -3.283,-6.563zm16.406,-2.11c0.272,0 0.43,-0.078 0.469,-0.234c0.741,0 1.523,-0.078 2.344,-0.234c0.469,0 1.172,-0.156 2.109,-0.469c-0.938,-0.938 -2.109,-1.406 -3.516,-1.406c-0.742,0.586 -1.289,1.289 -1.641,2.109c0.118,0.117 0.196,0.196 0.235,0.234z" id="svg_3" stroke="null"/>
  <path fill="#FFFFFF" d="m136.199465,7.87237c0.938,-3.085 3.047,-4.648 6.328,-4.688c0.272,0.117 0.507,0.196 0.703,0.234c2.813,0.938 4.843,1.875 6.094,2.813c2.344,1.875 3.828,5.782 4.453,11.719c0,1.523 0,3.008 0,4.453c-0.273,2.618 -0.273,5.118 0,7.5c0.272,3.75 0.43,6.875 0.469,9.375c0,0.469 -0.079,0.781 -0.234,0.938c-0.273,3.398 -0.977,5.586 -2.109,6.563c-0.586,0.273 -1.837,0.43 -3.75,0.469c-3.75,-0.586 -6.484,-2.539 -8.203,-5.859c-1.211,-2.461 -1.837,-5.82 -1.875,-10.078l1.406,-9.844l0,-3.281c0,-0.273 -0.079,-0.586 -0.234,-0.938c-0.273,-2.344 -0.82,-4.296 -1.641,-5.859c-0.273,-0.273 -0.431,-0.507 -0.469,-0.703c-0.743,-1.056 -1.055,-1.994 -0.938,-2.814z" id="svg_4" stroke="null"/>
  <path fill="#FFFFFF" d="m158.347465,28.26237c1.523,-3.281 5.117,-5.468 10.781,-6.563c3.398,-0.586 5.897,-0.976 7.5,-1.172c0.469,0 0.858,0.079 1.172,0.234c0.469,0.117 0.858,0.196 1.172,0.234c0.586,-0.273 0.898,-0.429 0.938,-0.469c0.117,-0.117 0.43,-0.195 0.938,-0.234c1.406,0.586 2.344,1.446 2.813,2.578l0,0.469c0,0.743 0.078,1.289 0.234,1.641c0.117,0.274 0.43,0.665 0.938,1.172c0.469,0.469 0.781,1.016 0.938,1.641l0,3.281l0,0.938c0,0.273 -0.079,0.586 -0.234,0.938c-0.117,0.742 -0.508,2.07 -1.172,3.984c-0.273,1.055 -0.899,2.539 -1.875,4.453c-1.523,3.281 -3.712,4.922 -6.563,4.922c-1.875,-0.586 -3.516,-1.523 -4.922,-2.813c-0.742,-0.469 -2.227,-1.641 -4.453,-3.516c-0.273,-0.273 -0.665,-0.664 -1.172,-1.172c-1.055,-1.055 -1.914,-1.836 -2.578,-2.344c-0.586,-0.469 -1.368,-1.172 -2.344,-2.109c-2.15,-2.616 -2.853,-4.647 -2.111,-6.093zm15.235,2.579c0.586,1.992 1.992,3.008 4.219,3.047c1.523,-0.742 2.616,-2.383 3.281,-4.922c0.272,-0.586 0.507,-1.289 0.703,-2.109c-0.117,-0.117 -0.352,-0.273 -0.703,-0.469c-1.68,-1.21 -3.243,-1.835 -4.688,-1.875c-1.992,1.211 -3.009,3.243 -3.047,6.094c0.117,0.116 0.195,0.194 0.235,0.234z" id="svg_5" stroke="null"/>
  <path fill="#FFFFFF" d="m200.007465,21.70037c0.741,-0.469 1.992,-0.859 3.75,-1.172c1.406,0 2.733,0 3.984,0c0.586,0.117 1.21,0.196 1.875,0.234l2.813,0.469c1.21,0.274 2.227,0.43 3.047,0.469c1.055,-0.469 2.773,-0.859 5.156,-1.172c4.96,0.743 7.461,4.102 7.5,10.078c-0.273,1.523 -0.586,2.539 -0.938,3.047c-0.742,2.344 -1.523,4.609 -2.344,6.797c-0.469,1.211 -1.094,2.461 -1.875,3.75l-0.938,0.938c-0.586,0.273 -1.603,0.43 -3.047,0.469c-0.273,-0.117 -0.665,-0.352 -1.172,-0.703c-0.273,-0.272 -0.586,-0.507 -0.938,-0.703c-0.273,0.938 -0.431,1.954 -0.469,3.047l0,1.641l0,1.875c-0.273,3.281 -2.54,4.922 -6.797,4.922c-4.688,-1.523 -7.266,-5.117 -7.734,-10.781c-0.117,-1.21 -0.196,-2.93 -0.234,-5.156c0.117,-1.055 0.195,-2.695 0.234,-4.922c0.272,-3.75 0.664,-6.563 1.172,-8.438c0,-0.273 -0.079,-0.507 -0.234,-0.703c-0.273,-1.21 -0.508,-1.914 -0.703,-2.109l-1.406,-0.938c-0.936,-0.588 -1.17,-0.9 -0.702,-0.939zm16.641,11.25c0.272,0.117 0.507,0.195 0.703,0.234c0.938,0.273 1.796,0.43 2.578,0.469c1.523,-1.523 2.305,-3.477 2.344,-5.859c-0.469,-1.406 -1.017,-2.265 -1.641,-2.578l-0.938,-0.469c-1.68,0.469 -2.774,1.25 -3.281,2.344c-0.117,0.117 -0.196,0.977 -0.234,2.578c0.117,1.055 0.195,2.07 0.234,3.047c0.118,0.117 0.196,0.195 0.235,0.234z" id="svg_6" stroke="null"/>
  <path fill="#FFFFFF" d="m242.429465,28.96637c0.586,-2.344 2.461,-4.062 5.625,-5.156c4.805,-2.148 9.57,-3.242 14.297,-3.281c3.554,0.586 5.819,3.164 6.797,7.734c-0.586,1.211 -1.523,1.836 -2.813,1.875c-0.938,-0.117 -2.423,-0.195 -4.453,-0.234c-0.586,0.117 -1.289,0.195 -2.109,0.234c-0.586,0.273 -1.055,0.586 -1.406,0.938c0.586,2.148 1.758,3.242 3.516,3.281l0.938,-0.938c1.21,-1.523 2.226,-2.383 3.046,-2.578c1.875,0.586 2.813,1.992 2.813,4.219c-0.273,1.211 -0.664,2.383 -1.172,3.516c-1.523,4.688 -3.788,7.266 -6.796,7.734c-2.344,-0.742 -5.001,-2.227 -7.969,-4.453c-1.68,-1.211 -4.023,-3.32 -7.031,-6.328c-2.814,-2.813 -3.908,-5.001 -3.283,-6.563zm16.406,-2.11c0.272,0 0.43,-0.078 0.469,-0.234c0.741,0 1.523,-0.078 2.344,-0.234c0.469,0 1.172,-0.156 2.109,-0.469c-0.938,-0.938 -2.109,-1.406 -3.516,-1.406c-0.742,0.586 -1.289,1.289 -1.641,2.109c0.118,0.117 0.196,0.196 0.235,0.234z" id="svg_7" stroke="null"/>
  <path fill="#FFFFFF" d="m282.799465,21.46637c1.68,-0.586 4.414,-0.898 8.203,-0.938c2.461,0.274 4.883,0.82 7.266,1.641c1.21,-0.938 2.773,-1.484 4.688,-1.641c2.813,0.274 4.219,1.602 4.219,3.984c-0.742,0.938 -1.602,1.563 -2.578,1.875l-0.938,-0.469c-1.211,-0.586 -2.07,-0.898 -2.578,-0.938c-0.938,0.743 -1.406,2.071 -1.406,3.984c0,0.586 0,1.133 0,1.641c0.117,0.742 0.195,1.445 0.234,2.109c0.273,2.461 0.43,4.57 0.47,6.328c0,0.273 -0.079,0.508 -0.235,0.703c0,1.211 -0.078,2.148 -0.234,2.813c0,1.055 -0.234,1.914 -0.703,2.578c-0.742,1.055 -2.383,1.602 -4.922,1.641c-3.75,-0.586 -6.25,-2.461 -7.5,-5.625c-0.742,-2.461 -1.133,-5.82 -1.172,-10.078c0.273,-2.461 0.586,-4.336 0.938,-5.625c-0.742,-1.21 -1.445,-2.07 -2.109,-2.578c-0.117,-0.117 -0.508,-0.352 -1.172,-0.703c-0.471,-0.468 -0.627,-0.702 -0.471,-0.702z" id="svg_8" stroke="null"/>
  <path fill="#FFFFFF" d="m313.268465,33.18437c1.407,-1.523 4.375,-2.305 8.907,-2.344c0.938,0 1.796,0 2.578,0c1.21,0 2.07,0.234 2.577,0.703c0.47,0.469 0.703,0.859 0.703,1.172c0,0.273 0.156,0.742 0.47,1.406c0.272,0.469 0.82,0.859 1.64,1.172c0.273,0.117 0.508,0.195 0.703,0.234c0.273,-0.117 0.508,-0.352 0.703,-0.703c0.742,-0.469 1.133,-1.25 1.172,-2.344c-1.055,-1.055 -2.852,-1.758 -5.391,-2.109c-3.085,-0.273 -5.352,-0.586 -6.797,-0.938c-2.344,-0.469 -3.828,-1.718 -4.453,-3.75c0.938,-2.148 3.203,-3.633 6.798,-4.453c2.147,-0.273 3.71,-0.507 4.688,-0.703c1.522,0 3.008,0 4.452,0c0.47,0 0.859,0.079 1.173,0.234l1.406,0c0,-0.117 0.078,-0.195 0.234,-0.234c2.344,1.055 3.516,3.008 3.516,5.859c-0.469,0.469 -0.859,0.703 -1.172,0.703c-0.117,0.117 -0.508,0.196 -1.172,0.234c-0.273,-0.117 -0.742,-0.507 -1.407,-1.172c-0.469,-0.273 -0.938,-0.664 -1.406,-1.172c-1.523,-0.742 -2.539,-1.132 -3.047,-1.172c-0.586,0.469 -0.977,1.016 -1.172,1.641c0.469,0.469 1.172,0.86 2.109,1.172c1.21,0.469 2.461,0.86 3.75,1.172c1.523,0.586 2.539,1.289 3.047,2.109c0.469,0.742 0.703,2.305 0.703,4.688c-0.586,3.555 -1.445,6.289 -2.578,8.203c-1.68,2.461 -4.023,3.711 -7.031,3.75c-6.211,-2.148 -10.664,-4.805 -13.359,-7.969l-0.469,-0.469c-1.992,-2.615 -2.617,-4.256 -1.875,-4.92z" id="svg_9" stroke="null"/>
  <path fill="#FFFFFF" d="m357.858465,5.35237c1.523,-3.398 4.18,-5.117 7.969,-5.156c2.617,1.406 3.945,4.375 3.985,8.906l0,3.75c0,0.274 -0.079,0.508 -0.235,0.703c0,0.938 -0.078,1.875 -0.234,2.813c-0.273,1.68 -0.508,2.618 -0.703,2.813c-1.055,1.992 -3.711,3.008 -7.969,3.047c-0.742,-0.273 -1.523,-0.664 -2.344,-1.172c2.461,-2.813 3.711,-5.234 3.75,-7.266c-0.469,-0.586 -1.017,-1.132 -1.641,-1.641l-1.406,-1.406c-1.875,-1.875 -2.266,-3.672 -1.172,-5.391z" id="svg_10" stroke="null"/>
  <path fill="#A80100" d="m400.944425,26.38737c1.055,-3.398 2.54,-6.054 4.453,-7.969c0.273,-0.273 0.43,-0.507 0.47,-0.703c0.741,-0.586 1.444,-1.21 2.109,-1.875c0.938,-0.469 1.641,-1.093 2.109,-1.875c0.586,-0.742 1.367,-1.914 2.344,-3.516c2.93,-4.336 6.211,-6.523 9.844,-6.563c0.272,0.274 0.507,0.43 0.703,0.469c1.21,0.938 2.147,1.563 2.813,1.875c0.272,-0.273 0.586,-0.429 0.938,-0.469c0.938,1.406 1.875,3.672 2.813,6.797l0.938,2.344c0.741,1.523 1.133,2.305 1.172,2.344c0.938,1.523 1.484,2.93 1.641,4.219c-1.406,1.523 -3.36,2.306 -5.859,2.344c-0.469,-0.469 -0.782,-0.858 -0.938,-1.172c-0.273,-0.586 -0.586,-1.055 -0.938,-1.406c-1.406,-2.617 -3.047,-3.945 -4.922,-3.984c-2.617,1.992 -3.946,5.352 -3.984,10.078c0.586,4.219 2.539,6.328 5.859,6.328c0.586,-0.273 1.133,-0.508 1.641,-0.703c0.469,-0.273 0.938,-0.664 1.406,-1.172c0.117,-0.117 0.195,-0.352 0.234,-0.703c0.272,-1.211 0.586,-1.914 0.938,-2.109c0.117,-0.117 0.507,-0.195 1.172,-0.234l1.406,0c0.272,0.117 0.507,0.196 0.703,0.234c2.461,0.586 4.022,1.445 4.688,2.578c-0.742,1.055 -1.914,2.148 -3.516,3.281c-1.211,0.938 -2.306,2.031 -3.281,3.281c-0.469,0.273 -0.703,0.665 -0.703,1.172c-0.273,0.938 -0.431,1.485 -0.469,1.641c-1.406,2.344 -3.595,3.906 -6.563,4.688c-2.93,-1.055 -5.118,-2.227 -6.563,-3.516c-0.273,-0.272 -0.665,-0.664 -1.172,-1.172c-0.938,-1.055 -1.954,-2.227 -3.047,-3.516c-0.938,-0.586 -1.797,-1.132 -2.578,-1.641c-0.938,-0.469 -1.797,-1.094 -2.578,-1.875c-2.931,-2.929 -4.025,-5.429 -3.283,-7.5z" id="svg_11" stroke="null"/>
  <line fill="none" stroke-width="null" stroke-opacity="null" fill-opacity="null" x1="0" y1="0" x2="447.591677" y2="62.069724" id="svg_14" stroke-linejoin="null" stroke-linecap="null" stroke="null"/>
  <line fill="none" stroke-width="null" stroke-opacity="null" fill-opacity="null" x1="0.180816" y1="0.558604" x2="434.6143" y2="56.687636" id="svg_15" stroke-linejoin="null" stroke-linecap="null" stroke="null"/>
  <line fill="none" stroke-width="null" stroke-opacity="null" fill-opacity="null" x1="434.170179" y1="56.743033" x2="0.785201" y2="0.238765" id="svg_16" stroke-linejoin="null" stroke-linecap="null" transform="translate(0.26146501302719116,0.1533699929714203) " stroke="null"/>
 </g>
</svg>