<?xml version="1.0" encoding="utf-8"?>
<!-- Generator: Adobe Illustrator 15.0.0, SVG Export Plug-In . SVG Version: 6.00 Build 0)  -->
<!DOCTYPE svg PUBLIC "-//W3C//DTD SVG 1.1//EN" "http://www.w3.org/Graphics/SVG/1.1/DTD/svg11.dtd">
<svg version="1.1" id="图层_1" xmlns="http://www.w3.org/2000/svg" xmlns:xlink="http://www.w3.org/1999/xlink" x="0px" y="0px"
	 width="41px" height="57px" viewBox="0 0 41 57" enable-background="new 0 0 41 57" xml:space="preserve">
<path fill="#FFFFFF" d="M13.578,28.089c1.523-3.281,5.117-5.468,10.781-6.563c3.398-0.586,5.897-0.976,7.5-1.172
	c0.469,0,0.858,0.079,1.172,0.234c0.469,0.117,0.858,0.196,1.172,0.234c0.586-0.273,0.898-0.429,0.938-0.469
	c0.117-0.117,0.43-0.195,0.938-0.234c1.406,0.586,2.344,1.446,2.813,2.578v0.469c0,0.743,0.078,1.289,0.234,1.641
	c0.117,0.274,0.43,0.665,0.938,1.172c0.469,0.469,0.781,1.016,0.938,1.641v3.281v0.938c0,0.274-0.079,0.586-0.234,0.938
	c-0.117,0.743-0.508,2.071-1.172,3.984c-0.273,1.055-0.899,2.54-1.875,4.453c-1.523,3.281-3.712,4.922-6.563,4.922
	c-1.875-0.586-3.516-1.523-4.922-2.813c-0.742-0.469-2.227-1.641-4.453-3.516c-0.273-0.272-0.665-0.663-1.172-1.172
	c-1.055-1.055-1.914-1.835-2.578-2.344c-0.586-0.469-1.368-1.172-2.344-2.109C13.539,31.566,12.836,29.535,13.578,28.089z
	 M28.813,30.667c0.586,1.992,1.992,3.009,4.219,3.047c1.523-0.741,2.616-2.382,3.281-4.922c0.272-0.586,0.507-1.289,0.703-2.109
	c-0.117-0.117-0.352-0.273-0.703-0.469c-1.68-1.21-3.243-1.835-4.688-1.875c-1.992,1.211-3.009,3.243-3.047,6.094
	C28.695,30.55,28.773,30.629,28.813,30.667z"/>
<rect id="_x3C_切片_x3E__5_" x="0.688" fill="none" width="40.297" height="55.5"/>
</svg>
