<?xml version="1.0" standalone="no"?><!DOCTYPE svg PUBLIC "-//W3C//DTD SVG 1.1//EN" "http://www.w3.org/Graphics/SVG/1.1/DTD/svg11.dtd"><svg t="1563342012187" class="icon" viewBox="0 0 1024 1024" version="1.1" xmlns="http://www.w3.org/2000/svg" p-id="1831" xmlns:xlink="http://www.w3.org/1999/xlink" width="16" height="16"><defs><style type="text/css"></style></defs><path d="M0 512a512 512 0 1 0 1024 0A512 512 0 1 0 0 512z" fill="#FFFFFF" p-id="1832"></path><path d="M822.912 433.664c15.616 62.797 16.333 109.158 0 158.131-15.795 47.59-32.742 78.515-78.182 78.515H510.797v21.428h155.315v59.57c0 45.108-38.246 68.046-77.568 79.463-59.238 17.152-106.112 14.541-155.597 0-41.344-12.16-77.465-37.094-77.465-79.462v-148.89c0-42.829 33.97-82.073 76.748-82.073h156.16c52.045 0 99.15-42.676 99.15-96.512V354.33h57.19c45.516 0 66.944 34.073 78.182 79.308z m-224.691 297.78c-16.128 0-29.338 13.286-29.338 29.695 0 16.487 13.21 29.901 29.338 29.901 16.23 0 29.363-13.414 29.363-29.875 0-16.435-13.133-29.696-29.363-29.696z" fill="#FFD400" p-id="1833"></path><path d="M432.23 504.294c-53.043 0-98.176 44.544-98.176 96.128v69.888h-53.248c-45.44 0-71.987-32.23-83.097-78.515-15.002-62.182-14.362-98.585 0-158.157 12.441-51.968 52.224-79.308 97.664-79.308h215.424v-21.428H355.482V274.97c0-45.108 11.238-69.581 77.414-81.28a436.25 436.25 0 0 1 73.933-6.375 485.58 485.58 0 0 1 81.331 6.4c42.42 7.066 77.952 38.912 77.952 81.255v148.89c0 43.647-34.253 80.434-77.722 80.434H432.23z m-9.856-209.459c16.154 0 29.338-13.286 29.364-29.696 0-16.486-13.21-29.9-29.364-29.9-16.204 0-29.337 13.414-29.337 29.9 0 16.41 13.133 29.696 29.337 29.696z" fill="#0075AA" p-id="1834"></path></svg>