<svg viewBox="0 0 1024 1024" xmlns="http://www.w3.org/2000/svg"><path d="M952.256 911.552L799.648 748.256c61.856-74.496 95.872-167.36 95.872-265.088C895.52 253.824 708.896 67.2 479.488 67.2c-229.344.032-415.968 186.624-415.968 416 0 229.344 186.624 415.936 416 415.936 60.096-.032 118.048-12.576 172.224-37.248 16.096-7.328 23.2-26.304 15.872-42.368-7.328-16.16-26.368-23.296-42.368-15.872-45.856 20.864-94.88 31.456-145.76 31.488-194.08 0-351.968-157.888-351.968-351.936 0-194.08 157.888-351.968 351.968-351.968C673.6 131.232 831.52 289.12 831.52 483.2c0 91.328-34.848 177.92-98.08 243.712-12.256 12.736-11.84 32.992.864 45.248.96.928 2.208 1.28 3.264 2.08.896 1.28 1.312 2.752 2.4 3.904l165.504 177.088c6.272 6.752 14.816 10.144 23.36 10.144 7.84 0 15.68-2.848 21.856-8.64 12.928-12.032 13.632-32.256 1.568-45.184z" fill="#fff"/></svg>