<svg class="icon" viewBox="0 0 1024 1024" version="1.1" xmlns="http://www.w3.org/2000/svg"  xmlns:xlink="http://www.w3.org/1999/xlink" width="200" height="200"><defs><style type="text/css"></style></defs><path d="M510.81 288a224.45 224.45 0 1 0 158.71 65.74A222.93 222.93 0 0 0 510.81 288z m0 384.9c-88.48 0-160.45-72-160.45-160.45S422.33 352 510.81 352s160.45 72 160.45 160.45S599.28 672.9 510.81 672.9z" p-id="2759" fill="#ffffff"></path><path d="M893.36 350.83a415.59 415.59 0 1 0-163.74 514.54l-46.81-46.81a349.1 349.1 0 0 1-172 45.08c-193.65 0-351.2-157.54-351.2-351.19s157.55-351.2 351.2-351.2S862 318.8 862 512.45a349 349 0 0 1-43.89 169.87L865 729.21a416 416 0 0 0 28.35-378.38z" p-id="2760" fill="#ffffff"></path><path d="M690.616 735.875l45.254-45.254 157.204 157.204-45.254 45.254z" p-id="2761" fill="#ffffff"></path></svg>