<?xml version="1.0" encoding="utf-8"?>
<!-- Generator: Adobe Illustrator 15.0.0, SVG Export Plug-In  -->
<!DOCTYPE svg PUBLIC "-//W3C//DTD SVG 1.1//EN" "http://www.w3.org/Graphics/SVG/1.1/DTD/svg11.dtd" [
	<!ENTITY ns_flows "http://ns.adobe.com/Flows/1.0/">
]>
<svg version="1.1"
	 xmlns="http://www.w3.org/2000/svg" xmlns:xlink="http://www.w3.org/1999/xlink" xmlns:a="http://ns.adobe.com/AdobeSVGViewerExtensions/3.0/"
	 x="0px" y="0px" width="769px" height="949px" viewBox="-0.5 -0.5 769 949" enable-background="new -0.5 -0.5 769 949"
	 xml:space="preserve">
<defs>
</defs>
<path fill-rule="evenodd" clip-rule="evenodd" fill="#fff" d="M545.2051,117.9214c-1.4043,5.8188-7.082,9.3076-10,17
	c-6.5645,17.2959-4.25,42.106-1,61c-57.2754-0.9829-113.7266,2.0918-159-15c-11.9165-4.499-30.0361-13.9531-30.0005-27
	c0.022-8.2109,9.7212-16.4097,13-23c10.8633-21.8364,8.9912-52.8936-3-74c-4.7744-8.4033-17.3105-18.6206-18-27
	c-1.0464-12.7134,13.7603-27.2827,26-29c12.1821-1.709,28.9907,1.3047,41.0005,5
	C462.6895,23.9165,518.5742,67.4272,545.2051,117.9214z"/>
<path fill-rule="evenodd" clip-rule="evenodd" fill="#E70303" d="M334.2046,94.9214c-25.252,31.209-58.4146,51.2695-94,75
	c-9.877,6.5864-23.8574,20.0415-35,21c-23.0239,1.98-21.8247-14.3721-28-28c-6.8325-15.0781-22.8804-27.73-39-35
	c-11.7041-5.2788-32.0083-6.8379-38-16c-5.5234-8.4463-5.1499-27.2485,0-38c13.6094-28.4131,86.6035-43.5684,128-46
	c9.5967-0.564,21.7358,0.3384,33,1c11.5796,0.6802,25.2417-0.2891,32,2c9.6909,3.2822,18.8315,19.9688,24,29
	C324.0215,71.834,327.2705,82.2065,334.2046,94.9214z"/>
<path fill-rule="evenodd" clip-rule="evenodd" fill="#FFFFFF" d="M718.2051,329.9214c-7.334,1.417-11.6133,1.8066-16,4
	c-12.8887,6.4409-13.8008,21.2319-23,30c-4.5703,4.3545-22.0957,9.1309-31,8c-9.9531-1.2646-33.6699-17.7695-43-24
	c-37.666-25.1519-78.5488-64.4683-88-111c33.4004-6.8188,57.3789-16.9292,61-52c1.3535-13.1089-3.8984-28.4902-1-43
	c2.4922-12.4883,19.6055-22.856,36-23c11.6309-0.1025,22.9316,8.2271,32,16c33.7129,28.9004,51.8945,76.2969,70,129
	C722.8887,286.291,733.9766,310.9917,718.2051,329.9214z"/>
<path fill-rule="evenodd" clip-rule="evenodd" fill="#E70303" d="M99.2046,149.9214c25.2139-2.0703,33.0688,6.5044,38,30
	c2.4438,11.644,5.54,31.2339,2,43c-2.1963,7.2993-13.748,17.7163-20,25c-6.6147,7.7061-14.5171,16.2725-21,24
	c-11.9419,14.2334-28.5396,41.9053-46,43c-22.3193,1.3989-41.105-23.8262-42-46c-0.9707-24.0518,9.0879-43.3638,21-64
	c15.9878-27.6978,28.1934-54.7886,66-55C97.8638,149.9175,98.5474,149.9751,99.2046,149.9214z"/>
<path fill-rule="evenodd" clip-rule="evenodd" fill="#E70303" d="M118.2046,621.9219c6.1279-24.8438,11.8413-53.5332,10-81
	c-4.542-67.7417-57.1523-102.6323-112-121.0005c-8.1382-12.0938-15.8984-20.5444-16-37c-0.1235-20.0293,17.9932-44.3052,39-47
	c12.4912-1.6025,29.5815,1.6807,42,8c20.9126,10.6406,32.6406,40.2974,43,65c10.1855,24.2881,21.8545,52.667,27,80.0005
	C161.4043,543.1055,138.2114,588.3418,118.2046,621.9219z"/>
<path fill-rule="evenodd" clip-rule="evenodd" fill="#FFFFFF" d="M735.2051,360.9214c50.3789,18.6299,31.5156,82.1006,22,137.0005
	c-4.8691,28.0879-7.8398,59.2324-18,80c-6.957,14.2148-21.9648,24.5137-28,36c-20.0664-4.9473-40.0391-9.5195-60-4
	c-7.1504,1.9766-13.9395,9.5723-21,10c-10.9238,0.6602-22.4082-12.7852-27-21c-6.3906-11.4297-8.8828-28.3672-14-44
	c-13.3848-40.8789-24.1504-106.2876,4-141.0005c22.0039,6.2324,45.5293,15.5596,66,8c11.7715-4.3477,24.8203-20.583,36-30
	C709.2813,380.063,722.8281,368.6851,735.2051,360.9214z"/>
<path fill-rule="evenodd" clip-rule="evenodd" fill="#E70303" d="M539.2051,589.9219c19.4961,39.1074,55.209,63.3086,113,61
	c4.7988-0.1934,10.7793-3.1035,17-2c12.9609,2.2969,25.3223,25.9805,26,45c1.5195,42.7051-29.0664,58.1934-52,77
	c-39.3906,32.2969-84.5254,65.1602-148,72c-24.7266-26.9414-44.1621-59.1738-96-59c-4.5664-42.3301,22.9824-77.3125,48-111
	C468.7129,643.9551,500.7422,597.0742,539.2051,589.9219z"/>
<path fill-rule="evenodd" clip-rule="evenodd" fill="#E70303" d="M334.2046,731.9219c2.1216,66.5449,39.5112,97.8203,100.0005,106
	c-7.3633,81.3887-84.0103,105.8555-171.0005,109.998c-34.5679,1.6465-71.3809-4.2129-94-18c-6.5278-3.9766-12.7573-9.6719-19-14
	c-18.3428-12.7148-38.917-28.123-52-45.998c14.6519-21.5703,37.0913-41.0918,58-62
	C196.853,767.2734,252.4775,720.8281,334.2046,731.9219z"/>
<rect id="_x3C_切片_x3E__1_" fill-rule="evenodd" clip-rule="evenodd" fill="none" width="768.5" height="948.5"/>
</svg>
