<svg version="1.1"
	 xmlns="http://www.w3.org/2000/svg"
	 x="0px" y="0px" height="10" viewBox="0 0 148 79" enable-background="new 0 0 148 79">
<path fill="rgb(8,71,136)" d="M0,0.05h10.068L24.29,47.435l9.5-31.57L28.897,0.277h10.296l13.88,47.328L67.01,0.164h37.941l0.114,4.892
	L90.844,29.402c0,0,11.889,3.129,14.392,17.009c0,0,3.527,19.341-8.646,28.328c0,0-6.428,5.518-16.838,2.503
	c0,0-7.452-1.024-13.197-14.62l7.907-3.525c0,0,2.958,8.589,9.044,9.441c0,0,11.263,2.674,11.718-14.448
	c0,0,1.65-15.017-12.173-16.154h-5.518v-4.95L91.072,9.948h-16.44l-20.99,68.488L38.738,30.028L23.664,78.209L0,0.05z"/>
<path fill="#666" d="M139.395,11.221L145.282,0l1.579,9.983l-5.802,10.9c0,0-4.949-9.834-11.839-9.578
	c0,0-5.525-0.362-9.706,5.354c0,0-4.395,4.991-5.845,17.364c0,0-0.213,8.703,0.555,10.965c0,0-5.291-6.059-2.389-26.452
	c0,0,3.328-13.737,11.562-16.553c0,0,6.399-2.305,10.793,2.517C134.189,4.501,136.067,5.994,139.395,11.221z"/>
<path fill="#666" d="M107.27,55.015c0,0,5.845,13.567,17.236,15.615c0,0,11.988,3.113,21.374-14.464l1.451,8.021
	c0,0-3.072,6.996-9.386,11.092c0,0-5.461,4.693-13.396,1.963C124.548,77.242,112.432,74.597,107.27,55.015z"/>
<rect fill="none" width="147.25" height="78.766"/>
</svg>
