<?xml version="1.0" encoding="UTF-8"?>
<!DOCTYPE svg PUBLIC "-//W3C//DTD SVG 1.1//EN" "http://www.w3.org/Graphics/SVG/1.1/DTD/svg11.dtd">
<!-- Creator: CorelDRAW X6 -->
<svg xmlns="http://www.w3.org/2000/svg" xml:space="preserve" width="109.499mm" height="11.7196mm" version="1.1" style="shape-rendering:geometricPrecision; text-rendering:geometricPrecision; image-rendering:optimizeQuality; fill-rule:evenodd; clip-rule:evenodd"
viewBox="0 0 10950 1172"
 xmlns:xlink="http://www.w3.org/1999/xlink">
 <defs>
  <style type="text/css">
   <![CDATA[
    .fil0 {fill:white;fill-rule:nonzero}
   ]]>
  </style>
 </defs>
 <g id="图层_x0020_1">
  <metadata id="CorelCorpID_0Corel-Layer"/>
  <path class="fil0" d="M1156 0l-1146 0 0 164 103 0c77,0 115,40 115,119l0 208 -228 0 0 166 205 0c-32,114 -89,207 -171,278l0 236c189,-84 318,-255 384,-513l342 0 0 501 202 0 0 -501 208 0 0 -166 -208 0 0 -327 193 0 0 -164zm-725 491l0 -327 216 0c76,0 114,40 114,119l0 208 -330 0zm1691 -404c0,-22 15,-40 43,-56 29,-16 64,-24 105,-24 40,0 74,8 103,24 29,16 43,34 43,56 0,21 -15,40 -43,57 -29,17 -63,25 -103,25 -41,0 -76,-8 -105,-25 -29,-17 -43,-36 -43,-57zm-192 846c0,-22 9,-39 27,-53 18,-14 40,-21 67,-21 47,8 88,33 122,75 -34,38 -75,63 -122,74 -26,0 -49,-7 -67,-21 -18,-14 -27,-32 -27,-53zm-115 -310l508 3 -83 151 -66 -52c-131,-63 -247,-51 -348,35 -70,73 -84,169 -41,288 44,68 98,108 164,119 66,12 137,7 214,-15l82 -55 53 72 261 0 -169 -238 153 -288c26,-99 -9,-164 -107,-194l-572 0 32 -99 672 0 0 -164 -635 0 48 -186 -210 0 -51 186 -105 0 48 -159 -208 0 -53 164c-4,106 32,159 108,159l105 0 63 0 -282 821 223 0 193 -548zm1394 -156l757 0 0 -156 -92 0 27 -42 -216 0 -25 42 -164 0 0 -89 444 0 0 -152 -444 0 0 -68 -223 0 0 68 -451 0 0 152 355 0c65,0 97,23 97,69l0 20 -476 0 0 156 166 0c-50,61 -106,107 -169,139l0 188 77 -28 0 249 0 77 0 79 1062 0 0 -431c0,-124 -61,-186 -184,-186l-605 0 64 -88zm422 467c59,0 89,20 89,60l0 21 -30 0 -605 0 0 -81 546 0zm-546 -142l0 -81 541 0c63,0 94,18 94,53l0 27 -635 0zm1694 -583c0,-94 -44,-140 -133,-140l-165 0 20 -68 -192 0c-26,81 -64,153 -117,215l0 234 52 -51 0 773 533 0 1 -962zm-280 480c66,0 99,29 99,86l0 236 -172 0 0 -321 73 0zm-73 -161l0 -298 73 0c66,0 99,29 99,88l0 210 -172 0zm938 502l0 -819c0,-95 -46,-142 -138,-142l-128 0 22 -68 -198 0c-17,75 -51,139 -102,192l-1 259c93,-56 165,-130 217,-222l62 0c41,0 62,28 62,84l0 666c0,20 -10,30 -30,30l-198 0 0 161 289 0c95,0 143,-47 143,-141zm-385 -526c22,0 41,12 56,35l83 261 -190 0 -91 -295 141 0zm1763 546l0 -883c1,-109 -47,-164 -144,-164l-846 0c-108,0 -162,52 -163,156l0 846 0 82 0 81 1031 0 124 0 -3 -118zm-337 -387c79,0 118,32 118,95l0 202 0 32 -31 0 -682 0 0 -330 595 0zm-595 -176l0 -308 595 0c79,0 118,35 118,105l0 202 -713 0zm1965 32c78,0 117,16 118,48l1 25 -639 0 0 -73 520 0zm103 -215c51,0 77,12 77,36l0 36 -700 0 -63 0 0 -72 686 0zm-743 -148c-98,-2 -148,45 -148,139l0 151 94 0c-20,20 -30,48 -30,86l0 201 309 0c77,0 115,19 115,57l-331 0c-87,0 -130,42 -130,126l0 249 200 0 0 -215 151 0c73,0 110,31 110,93l0 127 205 0 0 -220 154 0c69,0 103,22 103,65l0 149 79 1c79,0 119,-39 120,-117l0 -146c-2,-75 -48,-113 -138,-113l-319 0 0 -57 414 0 0 -198c0,-41 -8,-70 -24,-88l87 0 0 -154c-1,-93 -40,-138 -117,-138l-71 -1 102 -134 -204 0c-45,79 -107,124 -187,134l0 -154 -197 0 0 56c-103,78 -175,63 -216,-43l-221 0 88 144zm351 0l-101 2 102 -37 -1 35zm1905 124l5 -50 159 0 0 -169 -159 0 0 -62 -200 0 0 62 -448 0 0 -62 -200 0 0 62 -165 0 0 169 110 0c36,0 55,15 55,45l200 0 0 -45 382 0c44,0 66,17 66,50l195 0zm151 17c0,95 -42,142 -125,142 -176,8 -512,8 -1007,1l0 -143 1132 -1zm-291 175l202 0 -41 172c-7,35 -34,53 -82,56l-145 0 66 -228zm299 258l-480 0 0 -55 -199 0 0 55 -472 0 0 161 345 0c81,0 124,36 128,109l-1 170 115 0c60,0 91,-25 91,-73l0 -73 72 0c26,0 48,6 64,19l76 121 249 0 -130 -191c-7,-24 -30,-38 -68,-42l-262 0 0 -40 472 0 0 -161zm-1053 202l-76 237 212 1 71 -238 -207 0zm20 -330c15,46 62,71 141,76l89 0c75,-2 116,-15 124,-37l22 -41 56 77 221 -1 -120 -201 -218 1 -21 43c-31,76 -60,83 -86,21l-25 -66 -229 1 46 127zm2398 200c-1,-98 -55,-146 -163,-146l-380 0c-108,0 -163,50 -164,150l0 222 0 71 0 72 706 0 0 -369zm-275 163c48,0 72,15 72,46l0 17 -299 0 0 -63 227 0zm-227 -103l0 -65 227 0c48,0 72,14 72,43l0 21 -299 0zm-582 -736c0,-30 11,-56 33,-77 22,-22 50,-33 82,-33 30,0 57,11 79,33 22,22 33,48 33,77 0,31 -11,58 -33,80 -22,22 -49,33 -79,33 -32,0 -60,-11 -82,-33 -22,-22 -33,-49 -33,-80zm-50 172l159 0c93,0 139,49 139,146l0 558 78 0 0 151 -180 0c-59,-1 -91,-33 -93,-98l0 -538c1,-39 -17,-58 -52,-58l-51 0 0 -161zm748 -79l5 0c35,0 52,20 52,60l0 181 -57 0 0 -241zm262 112c14,-6 18,-1 12,14l-35 91 130 0 41 -122c7,-46 -20,-71 -83,-77l-98 37 -1 -55 191 0 0 -151 -118 0 48 -68 -196 0c-17,46 -58,68 -125,68 -67,0 -108,-23 -124,-68l-195 0 46 68 -116 0 0 151 129 0c43,0 65,18 65,53l-1 56 -24 20c-11,5 -20,-3 -25,-24l-7 -73 -123 0 -4 1 17 149c12,31 38,44 76,38l89 -33 1 53 -197 0 0 141 788 0 0 -141 -195 0 1 -104 32 -25z"/>
 </g>
</svg>
