<?xml version="1.0" encoding="UTF-8"?>
<!DOCTYPE svg PUBLIC "-//W3C//DTD SVG 1.1//EN" "http://www.w3.org/Graphics/SVG/1.1/DTD/svg11.dtd">
<!-- Creator: CorelDRAW X6 -->
<svg xmlns="http://www.w3.org/2000/svg" xml:space="preserve" width="11.558mm" height="10.7326mm" version="1.1" style="shape-rendering:geometricPrecision; text-rendering:geometricPrecision; image-rendering:optimizeQuality; fill-rule:evenodd; clip-rule:evenodd"
viewBox="0 0 51 48"
 xmlns:xlink="http://www.w3.org/1999/xlink">
 <defs>
  <style type="text/css">
   <![CDATA[
    .fil0 {fill:#1EADF4}
   ]]>
  </style>
 </defs>
 <g id="图层_x0020_1">
  <metadata id="CorelCorpID_0Corel-Layer"/>
  <path class="fil0" d="M20 36l16 -16 -9 -9 -16 16 9 9 0 0zm-3 3l-9 -9 -3 3 -3 11 12 -3 2 -2 0 0zm21 -21l4 -4c0,0 1,-1 1,-1 0,0 0,-1 -1,-1l-7 -6c-1,-1 -2,-1 -3,0l-4 4 9 9 0 0zm-1 -17l9 9c1,1 1,2 1,3 0,1 0,2 -1,3l-29 29c-1,1 -1,1 -2,1l-14 2c-1,0 -1,0 -2,-1 0,0 -1,-1 -1,-1l0 0c0,0 0,0 0,0l2 -13c0,-1 0,-1 1,-2l29 -29c1,-1 4,-1 5,0l0 0zm1 28l11 0c1,0 2,1 2,2 0,1 -1,2 -2,2l-11 0c-1,0 -2,-1 -2,-2 0,-1 1,-2 2,-2zm-7 7l18 0c1,0 2,1 2,2 0,1 -1,2 -2,2l-18 0c-1,0 -2,-1 -2,-2 0,-1 1,-2 2,-2zm-7 7l26 0c1,0 2,1 2,2 0,1 -1,2 -2,2l-26 0c-1,0 -2,-1 -2,-2 0,-1 1,-2 2,-2z"/>
 </g>
</svg>
