<?xml version="1.0" encoding="UTF-8"?>
<!DOCTYPE svg PUBLIC "-//W3C//DTD SVG 1.1//EN" "http://www.w3.org/Graphics/SVG/1.1/DTD/svg11.dtd">
<!-- Creator: CorelDRAW X6 -->
<svg xmlns="http://www.w3.org/2000/svg" xml:space="preserve" width="73.6625mm" height="10.2728mm" version="1.1" style="shape-rendering:geometricPrecision; text-rendering:geometricPrecision; image-rendering:optimizeQuality; fill-rule:evenodd; clip-rule:evenodd"
viewBox="0 0 1174 164"
 xmlns:xlink="http://www.w3.org/1999/xlink">
 <defs>
  <style type="text/css">
   <![CDATA[
    .fil1 {fill:#1EADF4}
    .fil0 {fill:#1EADF4;fill-rule:nonzero}
   ]]>
  </style>
 </defs>
 <g id="图层_x0020_1">
  <metadata id="CorelCorpID_0Corel-Layer"/>
  <path class="fil0" d="M0 0l74 0c15,0 26,2 35,6 9,4 16,10 22,17 6,7 10,16 13,26 3,10 4,20 4,31 0,17 -2,31 -6,40 -4,9 -9,17 -16,24 -7,6 -14,11 -22,13 -11,3 -21,4 -30,4l-74 0 0 -161zm50 36l0 88 12 0c10,0 18,-1 22,-3 4,-2 8,-6 10,-12 3,-6 4,-15 4,-28 0,-17 -3,-29 -8,-35 -6,-6 -15,-9 -28,-9l-12 0zm113 67c0,-18 6,-33 18,-44 12,-12 28,-17 49,-17 23,0 41,7 53,20 10,11 14,24 14,40 0,18 -6,33 -18,44 -12,11 -28,17 -49,17 -19,0 -34,-5 -45,-14 -14,-12 -21,-27 -21,-46zm45 0c0,10 2,18 6,23 4,5 9,7 16,7 6,0 12,-2 16,-7 4,-5 6,-13 6,-24 0,-10 -2,-18 -6,-23 -4,-5 -9,-7 -15,-7 -6,0 -12,3 -16,8 -4,5 -6,13 -6,23zm102 0c0,-18 6,-33 18,-44 12,-12 28,-17 49,-17 23,0 41,7 53,20 10,11 14,24 14,40 0,18 -6,33 -18,44 -12,11 -28,17 -49,17 -19,0 -34,-5 -45,-14 -14,-12 -21,-27 -21,-46zm45 0c0,10 2,18 6,23 4,5 9,7 16,7 6,0 12,-2 16,-7 4,-5 6,-13 6,-24 0,-10 -2,-18 -6,-23 -4,-5 -9,-7 -15,-7 -6,0 -12,3 -16,8 -4,5 -6,13 -6,23zm107 -103l46 0 0 83 33 -39 55 0 -42 41 44 76 -50 0 -24 -47 -17 16 0 30 -46 0 0 -161zm147 0l45 0 0 56c4,-5 10,-8 15,-11 6,-2 12,-3 19,-3 14,0 26,5 35,15 9,10 14,25 14,44 0,13 -2,24 -6,34 -4,10 -10,17 -18,22 -7,5 -16,7 -25,7 -8,0 -15,-2 -22,-5 -5,-3 -10,-8 -16,-15l0 17 -42 0 0 -161zm45 102c0,10 2,17 6,22 4,5 9,7 14,7 5,0 10,-2 13,-7 4,-4 5,-12 5,-22 0,-9 -2,-16 -5,-20 -4,-4 -8,-7 -13,-7 -6,0 -11,2 -15,7 -4,5 -6,11 -6,21z"/>
  <polygon class="fil0" points="1038,3 1083,3 1083,86 1117,47 1172,47 1130,88 1174,164 1124,164 1100,117 1083,133 1083,164 1038,164 "/>
  <g id="_869967504">
   <path class="fil1" d="M812 120c-10,0 -19,-8 -19,-19 0,-10 8,-19 19,-19 10,0 19,8 19,19 0,10 -8,19 -19,19zm-10 -18c3,0 6,-3 6,-6 0,-2 -1,-3 -2,-4 -1,-1 -3,-2 -4,-2 -2,0 -3,1 -4,2 -1,1 -2,3 -2,4 0,2 1,3 2,4 1,1 3,2 4,2z"/>
   <path class="fil1" d="M958 120c-10,0 -19,-8 -19,-19 0,-10 8,-19 19,-19 10,0 19,8 19,19 0,10 -8,19 -19,19zm-10 -18c3,0 6,-3 6,-6 0,-2 -1,-3 -2,-4 -1,-1 -3,-2 -4,-2 -2,0 -3,1 -4,2 -1,1 -2,3 -2,4 0,2 1,3 2,4 1,1 3,2 4,2z"/>
   <path class="fil0" d="M750 98c0,-11 3,-21 8,-31 5,-10 13,-18 23,-23 10,-5 21,-8 33,-8 19,0 34,6 46,18 12,12 18,27 18,46 0,19 -6,34 -18,46 -12,12 -27,18 -45,18 -11,0 -22,-3 -32,-8 -10,-5 -18,-13 -23,-22 -5,-10 -8,-22 -8,-36zm33 2c0,12 3,21 9,28 6,6 13,10 21,10 8,0 16,-3 21,-10 6,-6 9,-16 9,-28 0,-12 -3,-21 -9,-28 -6,-6 -13,-10 -21,-10 -8,0 -16,3 -21,10 -6,6 -9,16 -9,28zm111 -2c0,-11 3,-21 8,-31 5,-10 13,-18 23,-23 10,-5 21,-8 33,-8 19,0 34,6 46,18 12,12 18,27 18,46 0,19 -6,34 -18,46 -12,12 -27,18 -45,18 -11,0 -22,-3 -32,-8 -10,-5 -18,-13 -23,-22 -5,-10 -8,-22 -8,-36zm33 2c0,12 3,21 9,28 6,6 13,10 21,10 8,0 16,-3 21,-10 6,-6 9,-16 9,-28 0,-12 -3,-21 -9,-28 -6,-6 -13,-10 -21,-10 -8,0 -16,3 -21,10 -6,6 -9,16 -9,28z"/>
   <polygon class="fil1" points="874,91 900,91 900,108 874,108 "/>
  </g>
 </g>
</svg>
